<?xml version="1.0" encoding="UTF-8" standalone="no"?>
<!DOCTYPE svg PUBLIC "-//W3C//DTD SVG 1.1//EN"
 "http://www.w3.org/Graphics/SVG/1.1/DTD/svg11.dtd">
<!-- Generated by graphviz version 9.0.0 (20230911.1827)
 -->
<!-- Pages: 1 -->
<svg width="399px" height="816px"
 viewBox="0.00 0.00 398.88 815.50" xmlns="http://www.w3.org/2000/svg" xmlns:xlink="http://www.w3.org/1999/xlink">
<g id="graph0" class="graph" transform="scale(1.0 1.0) rotate(0.0) translate(4.0 811.5)">
<!-- 11 -->
<g id="node1" class="node">
<title>11</title>
<ellipse fill="none" stroke="black" stroke-width="2" cx="143" cy="-19.63" rx="19.63" ry="19.63"/>
<text text-anchor="middle" x="143" y="-14.2" font-family="Times New Roman,serif" font-size="14.00">10</text>
</g>
<!-- 11&#45;&gt;11 -->
<g id="edge1" class="edge">
<title>11&#45;&gt;11</title>
<path fill="none" stroke="black" stroke-dasharray="1,5" d="M158.09,-32.86C176.67,-43.18 198.63,-38.77 198.63,-19.63 198.63,-4.07 184.13,1.75 168.73,-2.14"/>
<polygon fill="black" stroke="black" points="167.49,1.13 159.5,-5.83 170.08,-5.37 167.49,1.13"/>
<text text-anchor="middle" x="214.75" y="-14.2" font-family="Times New Roman,serif" font-size="14.00">sigma</text>
</g>
<g id="node2" class="node">
<title></title>
</g>
<!-- 1 -->
<g id="node3" class="node">
<title>1</title>
<ellipse fill="none" stroke="black" stroke-width="2" cx="191" cy="-608.5" rx="18" ry="18"/>
<text text-anchor="middle" x="191" y="-603.08" font-family="Times New Roman,serif" font-size="14.00">0</text>
</g>
<!-- &#45;&gt;1 -->
<g id="edge2" class="edge">
<title>&#45;&gt;1</title>
<path fill="none" stroke="blue" d="M191,-771.66C191,-741.04 191,-675.9 191,-638.17"/>
<polygon fill="blue" stroke="blue" points="194.5,-638.47 191,-628.47 187.5,-638.47 194.5,-638.47"/>
</g>
<!-- 2 -->
<g id="node4" class="node">
<title>2</title>
<ellipse fill="none" stroke="black" stroke-width="2" cx="31" cy="-412.75" rx="18" ry="18"/>
<text text-anchor="middle" x="31" y="-407.33" font-family="Times New Roman,serif" font-size="14.00">1</text>
</g>
<!-- 1&#45;&gt;2 -->
<g id="edge3" class="edge">
<title>1&#45;&gt;2</title>
<path fill="none" stroke="black" d="M179.75,-593.88C152.55,-560.95 83.02,-476.75 49.55,-436.22"/>
<polygon fill="black" stroke="black" points="52.27,-434.01 43.2,-428.53 46.87,-438.47 52.27,-434.01"/>
<text text-anchor="middle" x="122.75" y="-505.2" font-family="Times New Roman,serif" font-size="14.00">c1</text>
</g>
<!-- 3 -->
<g id="node5" class="node">
<title>3</title>
<ellipse fill="none" stroke="black" stroke-width="2" cx="119" cy="-412.75" rx="18" ry="18"/>
<text text-anchor="middle" x="119" y="-407.33" font-family="Times New Roman,serif" font-size="14.00">2</text>
</g>
<!-- 1&#45;&gt;3 -->
<g id="edge4" class="edge">
<title>1&#45;&gt;3</title>
<path fill="none" stroke="black" d="M184.99,-591.32C172.62,-558.05 144.25,-481.7 129.05,-440.8"/>
<polygon fill="black" stroke="black" points="132.34,-439.6 125.58,-431.45 125.78,-442.04 132.34,-439.6"/>
<text text-anchor="middle" x="164.38" y="-505.2" font-family="Times New Roman,serif" font-size="14.00">a1</text>
</g>
<!-- 4 -->
<g id="node6" class="node">
<title>4</title>
<ellipse fill="none" stroke="black" stroke-width="2" cx="191" cy="-412.75" rx="18" ry="18"/>
<text text-anchor="middle" x="191" y="-407.33" font-family="Times New Roman,serif" font-size="14.00">3</text>
</g>
<!-- 1&#45;&gt;4 -->
<g id="edge5" class="edge">
<title>1&#45;&gt;4</title>
<path fill="none" stroke="black" d="M191,-590.31C191,-557 191,-483.37 191,-442.5"/>
<polygon fill="black" stroke="black" points="194.5,-442.7 191,-432.7 187.5,-442.7 194.5,-442.7"/>
<text text-anchor="middle" x="197.75" y="-505.2" font-family="Times New Roman,serif" font-size="14.00">c2</text>
</g>
<!-- 5 -->
<g id="node7" class="node">
<title>5</title>
<ellipse fill="none" stroke="black" stroke-width="2" cx="263" cy="-412.75" rx="18" ry="18"/>
<text text-anchor="middle" x="263" y="-407.33" font-family="Times New Roman,serif" font-size="14.00">4</text>
</g>
<!-- 1&#45;&gt;5 -->
<g id="edge6" class="edge">
<title>1&#45;&gt;5</title>
<path fill="none" stroke="black" d="M197.01,-591.32C209.38,-558.05 237.75,-481.7 252.95,-440.8"/>
<polygon fill="black" stroke="black" points="256.22,-442.04 256.42,-431.45 249.66,-439.6 256.22,-442.04"/>
<text text-anchor="middle" x="236.38" y="-505.2" font-family="Times New Roman,serif" font-size="14.00">a2</text>
</g>
<!-- 6 -->
<g id="node8" class="node">
<title>6</title>
<ellipse fill="none" stroke="black" stroke-width="2" cx="335" cy="-412.75" rx="18" ry="18"/>
<text text-anchor="middle" x="335" y="-407.33" font-family="Times New Roman,serif" font-size="14.00">5</text>
</g>
<!-- 1&#45;&gt;6 -->
<g id="edge7" class="edge">
<title>1&#45;&gt;6</title>
<path fill="none" stroke="black" d="M201.36,-593.57C225.84,-560.63 287.51,-477.65 317.74,-436.97"/>
<polygon fill="black" stroke="black" points="320.49,-439.15 323.64,-429.04 314.87,-434.98 320.49,-439.15"/>
<text text-anchor="middle" x="274.75" y="-505.2" font-family="Times New Roman,serif" font-size="14.00">c3</text>
</g>
<!-- 7 -->
<g id="node9" class="node">
<title>7</title>
<ellipse fill="none" stroke="black" stroke-width="2" cx="18" cy="-217" rx="18" ry="18"/>
<text text-anchor="middle" x="18" y="-211.58" font-family="Times New Roman,serif" font-size="14.00">6</text>
</g>
<!-- 2&#45;&gt;7 -->
<g id="edge8" class="edge">
<title>2&#45;&gt;7</title>
<path fill="none" stroke="black" d="M26.72,-395.01C20.13,-369.23 8.25,-322.75 8.25,-322.75 8.25,-322.75 8.25,-307 8.25,-307 8.25,-307 12.04,-272.43 14.89,-246.38"/>
<polygon fill="black" stroke="black" points="18.35,-246.99 15.96,-236.67 11.39,-246.23 18.35,-246.99"/>
<text text-anchor="middle" x="24.38" y="-309.45" font-family="Times New Roman,serif" font-size="14.00">a2,b2</text>
</g>
<!-- 3&#45;&gt;7 -->
<g id="edge9" class="edge">
<title>3&#45;&gt;7</title>
<path fill="none" stroke="black" d="M110.91,-396.23C93.55,-362.92 52.59,-284.36 31.33,-243.58"/>
<polygon fill="black" stroke="black" points="34.56,-242.2 26.83,-234.95 28.35,-245.43 34.56,-242.2"/>
<text text-anchor="middle" x="79.12" y="-309.45" font-family="Times New Roman,serif" font-size="14.00">b1</text>
</g>
<!-- 8 -->
<g id="node10" class="node">
<title>8</title>
<ellipse fill="none" stroke="black" stroke-width="2" cx="143" cy="-217" rx="18" ry="18"/>
<text text-anchor="middle" x="143" y="-211.58" font-family="Times New Roman,serif" font-size="14.00">7</text>
</g>
<!-- 3&#45;&gt;8 -->
<g id="edge10" class="edge">
<title>3&#45;&gt;8</title>
<path fill="none" stroke="black" d="M121.13,-394.56C125.27,-361.17 134.42,-287.25 139.48,-246.44"/>
<polygon fill="black" stroke="black" points="142.93,-247.02 140.69,-236.66 135.99,-246.16 142.93,-247.02"/>
<text text-anchor="middle" x="139.12" y="-309.45" font-family="Times New Roman,serif" font-size="14.00">b2</text>
</g>
<!-- 4&#45;&gt;8 -->
<g id="edge11" class="edge">
<title>4&#45;&gt;8</title>
<path fill="none" stroke="black" d="M186.82,-394.9C178.56,-361.55 160.05,-286.84 149.93,-245.99"/>
<polygon fill="black" stroke="black" points="153.37,-245.29 147.56,-236.43 146.57,-246.98 153.37,-245.29"/>
<text text-anchor="middle" x="184.38" y="-309.45" font-family="Times New Roman,serif" font-size="14.00">a2,b1</text>
</g>
<!-- 9 -->
<g id="node11" class="node">
<title>9</title>
<ellipse fill="none" stroke="black" stroke-width="2" cx="303" cy="-217" rx="18" ry="18"/>
<text text-anchor="middle" x="303" y="-211.58" font-family="Times New Roman,serif" font-size="14.00">8</text>
</g>
<!-- 5&#45;&gt;9 -->
<g id="edge12" class="edge">
<title>5&#45;&gt;9</title>
<path fill="none" stroke="black" d="M266.48,-394.9C273.37,-361.55 288.79,-286.84 297.22,-245.99"/>
<polygon fill="black" stroke="black" points="300.6,-246.94 299.19,-236.44 293.74,-245.53 300.6,-246.94"/>
<text text-anchor="middle" x="292.12" y="-309.45" font-family="Times New Roman,serif" font-size="14.00">b1</text>
</g>
<!-- 6&#45;&gt;9 -->
<g id="edge13" class="edge">
<title>6&#45;&gt;9</title>
<path fill="none" stroke="black" d="M332.16,-394.56C326.65,-361.17 314.44,-287.25 307.7,-246.44"/>
<polygon fill="black" stroke="black" points="311.16,-245.95 306.08,-236.65 304.26,-247.09 311.16,-245.95"/>
<text text-anchor="middle" x="335.38" y="-309.45" font-family="Times New Roman,serif" font-size="14.00">a1,b2</text>
</g>
<!-- 10 -->
<g id="node12" class="node">
<title>10</title>
<ellipse fill="none" stroke="black" stroke-width="2" cx="18" cy="-19.63" rx="18" ry="18"/>
<text text-anchor="middle" x="18" y="-14.2" font-family="Times New Roman,serif" font-size="14.00">9</text>
</g>
<!-- 7&#45;&gt;10 -->
<g id="edge14" class="edge">
<title>7&#45;&gt;10</title>
<path fill="none" stroke="black" d="M18,-198.67C18,-164.99 18,-90.45 18,-49.3"/>
<polygon fill="black" stroke="black" points="21.5,-49.44 18,-39.44 14.5,-49.44 21.5,-49.44"/>
<text text-anchor="middle" x="21.75" y="-113.7" font-family="Times New Roman,serif" font-size="14.00">d</text>
</g>
<!-- 8&#45;&gt;11 -->
<g id="edge15" class="edge">
<title>8&#45;&gt;11</title>
<path fill="none" stroke="black" d="M143,-198.67C143,-165.43 143,-92.38 143,-50.93"/>
<polygon fill="black" stroke="black" points="146.5,-51.15 143,-41.15 139.5,-51.15 146.5,-51.15"/>
<text text-anchor="middle" x="146.75" y="-113.7" font-family="Times New Roman,serif" font-size="14.00">d</text>
</g>
<!-- 12 -->
<g id="node13" class="node">
<title>12</title>
<ellipse fill="none" stroke="black" stroke-width="2" cx="303" cy="-19.63" rx="19.63" ry="19.63"/>
<text text-anchor="middle" x="303" y="-14.2" font-family="Times New Roman,serif" font-size="14.00">11</text>
</g>
<!-- 9&#45;&gt;12 -->
<g id="edge16" class="edge">
<title>9&#45;&gt;12</title>
<path fill="none" stroke="black" d="M303,-198.67C303,-165.43 303,-92.38 303,-50.93"/>
<polygon fill="black" stroke="black" points="306.5,-51.15 303,-41.15 299.5,-51.15 306.5,-51.15"/>
<text text-anchor="middle" x="306.75" y="-113.7" font-family="Times New Roman,serif" font-size="14.00">d</text>
</g>
<!-- 10&#45;&gt;10 -->
<g id="edge17" class="edge">
<title>10&#45;&gt;10</title>
<path fill="none" stroke="black" d="M31.29,-32.05C49.59,-43.4 72,-39.26 72,-19.63 72,-3.53 56.92,2.15 41.4,-2.59"/>
<polygon fill="black" stroke="black" points="40.31,0.76 32.66,-6.58 43.21,-5.61 40.31,0.76"/>
<text text-anchor="middle" x="88.12" y="-14.2" font-family="Times New Roman,serif" font-size="14.00">sigma</text>
</g>
<!-- 12&#45;&gt;12 -->
<g id="edge18" class="edge">
<title>12&#45;&gt;12</title>
<path fill="none" stroke="black" stroke-dasharray="1,5" d="M318.09,-32.86C336.67,-43.18 358.63,-38.77 358.63,-19.63 358.63,-4.07 344.13,1.75 328.73,-2.14"/>
<polygon fill="black" stroke="black" points="327.49,1.13 319.5,-5.83 330.08,-5.37 327.49,1.13"/>
<text text-anchor="middle" x="374.75" y="-14.2" font-family="Times New Roman,serif" font-size="14.00">sigma</text>
</g>
</g>
</svg>
