<?xml version="1.0" encoding="UTF-8" standalone="no"?>
<!DOCTYPE svg PUBLIC "-//W3C//DTD SVG 1.0//EN"
 "http://www.w3.org/TR/2001/REC-SVG-20010904/DTD/svg10.dtd" [
 <!ATTLIST svg xmlns:xlink CDATA #FIXED "http://www.w3.org/1999/xlink">
]>
<!-- Generated by Graphviz version 2.14.1 (Fri Nov  9 08:19:38 GMT 2007)
     For user: (mdstairs) Micah Stairs -->
<!-- Title: Image Pages: 1 -->
<svg width="201pt" height="208pt"
 viewBox="0.00 0.00 201.00 208.00" xmlns="http://www.w3.org/2000/svg" xmlns:xlink="http://www.w3.org/1999/xlink">
<g id="graph0" class="graph" transform="scale(1 1) rotate(0) translate(4 204)">
<title>Image</title>
<polygon style="fill:white;stroke:white;" points="-4,4 -4,-204 197,-204 197,4 -4,4"/>
<!-- _1 -->
<g id="node1" class="node"><title>_1</title>
<ellipse style="fill:none;stroke:black;stroke-width:2;" cx="82" cy="-108" rx="18" ry="18"/>
<text text-anchor="middle" x="82" y="-103" style="font-family:Times New Roman;font-size:14.00;">1</text>
</g>
<!-- _3 -->
<g id="node3" class="node"><title>_3</title>
<ellipse style="fill:none;stroke:black;stroke-width:2;" cx="24" cy="-18" rx="18" ry="18"/>
<text text-anchor="middle" x="24" y="-13" style="font-family:Times New Roman;font-size:14.00;">3</text>
</g>
<!-- _1&#45;&gt;_3 -->
<g id="edge2" class="edge"><title>_1&#45;&gt;_3</title>
<path style="fill:none;stroke:black;" d="M64,-105C46,-101 18,-92 5,-72 0,-62 2,-51 7,-41"/>
<polygon style="fill:black;stroke:black;" points="10.2031,-42.4414 12,-32 4.08397,-39.0418 10.2031,-42.4414"/>
<text text-anchor="middle" x="16" y="-58" style="font-family:Times New Roman;font-size:14.00;">s0</text>
</g>
<!-- _2 -->
<g id="node5" class="node"><title>_2</title>
<ellipse style="fill:none;stroke:black;stroke-width:2;" cx="140" cy="-18" rx="18" ry="18"/>
<text text-anchor="middle" x="140" y="-13" style="font-family:Times New Roman;font-size:14.00;">2</text>
</g>
<!-- _1&#45;&gt;_2 -->
<g id="edge4" class="edge"><title>_1&#45;&gt;_2</title>
<path style="fill:none;stroke:black;" d="M92,-93C100,-79 114,-58 124,-42"/>
<polygon style="fill:black;stroke:black;" points="127.365,-43.262 130,-33 121.541,-39.3791 127.365,-43.262"/>
<text text-anchor="middle" x="123" y="-58" style="font-family:Times New Roman;font-size:14.00;">s1</text>
</g>
<!-- _3&#45;&gt;_1 -->
<g id="edge8" class="edge"><title>_3&#45;&gt;_1</title>
<path style="fill:none;stroke:black;" d="M29,-35C33,-46 39,-60 46,-72 50,-78 55,-84 61,-89"/>
<polygon style="fill:black;stroke:black;" points="58.454,-91.4038 68,-96 63.4038,-86.454 58.454,-91.4038"/>
<text text-anchor="middle" x="77" y="-58" style="font-family:Times New Roman;font-size:14.00;">r0,l0,cr</text>
</g>
<!-- _2&#45;&gt;_1 -->
<g id="edge6" class="edge"><title>_2&#45;&gt;_1</title>
<path style="fill:none;stroke:black;" d="M142,-36C142,-47 141,-61 135,-72 129,-83 118,-91 108,-96"/>
<polygon style="fill:black;stroke:black;" points="106.042,-93.084 99,-101 109.441,-99.2031 106.042,-93.084"/>
<text text-anchor="middle" x="166" y="-58" style="font-family:Times New Roman;font-size:14.00;">r1,l1,cr</text>
</g>
<!--   -->
<g id="node8" class="node"><title> </title>
<text text-anchor="middle" x="82" y="-177" style="font-family:Times New Roman;font-size:14.00;"> </text>
</g>
<!--  &#45;&gt;_1 -->
<g id="edge10" class="edge"><title> &#45;&gt;_1</title>
<path style="fill:none;stroke:blue;" d="M82,-164C82,-155 82,-146 82,-136"/>
<polygon style="fill:blue;stroke:blue;" points="85.5001,-136 82,-126 78.5001,-136 85.5001,-136"/>
</g>
</g>
</svg>
