<?xml version="1.0" encoding="UTF-8" standalone="no"?>
<!DOCTYPE svg PUBLIC "-//W3C//DTD SVG 1.0//EN"
 "http://www.w3.org/TR/2001/REC-SVG-20010904/DTD/svg10.dtd" [
 <!ATTLIST svg xmlns:xlink CDATA #FIXED "http://www.w3.org/1999/xlink">
]>
<!-- Generated by Graphviz version 2.14.1 (Fri Nov  9 08:19:38 GMT 2007)
     For user: (mdstairs) Micah Stairs -->
<!-- Title: Image Pages: 1 -->
<svg width="160pt" height="568pt"
 viewBox="0.00 0.00 160.00 568.00" xmlns="http://www.w3.org/2000/svg" xmlns:xlink="http://www.w3.org/1999/xlink">
<g id="graph0" class="graph" transform="scale(1 1) rotate(0) translate(4 564)">
<title>Image</title>
<polygon style="fill:white;stroke:white;" points="-4,4 -4,-564 156,-564 156,4 -4,4"/>
<!-- _1 -->
<g id="node1" class="node"><title>_1</title>
<ellipse style="fill:none;stroke:black;stroke-width:2;" cx="97" cy="-468" rx="18" ry="18"/>
<text text-anchor="middle" x="97" y="-463" style="font-family:Times New Roman;font-size:14.00;">1</text>
</g>
<!-- _1&#45;&gt;_1 -->
<g id="edge2" class="edge"><title>_1&#45;&gt;_1</title>
<path style="fill:none;stroke:black;" d="M114,-474C124,-476 133,-474 133,-468 133,-464 129,-462 124,-461"/>
<polygon style="fill:black;stroke:black;" points="123.602,-457.522 114,-462 124.299,-464.488 123.602,-457.522"/>
<text text-anchor="middle" x="140" y="-463" style="font-family:Times New Roman;font-size:14.00;">cr</text>
</g>
<!-- _2 -->
<g id="node4" class="node"><title>_2</title>
<ellipse style="fill:none;stroke:black;stroke-width:2;" cx="51" cy="-378" rx="18" ry="18"/>
<text text-anchor="middle" x="51" y="-373" style="font-family:Times New Roman;font-size:14.00;">2</text>
</g>
<!-- _1&#45;&gt;_2 -->
<g id="edge4" class="edge"><title>_1&#45;&gt;_2</title>
<path style="fill:none;stroke:black;" d="M84,-455C78,-449 72,-440 67,-432 63,-423 59,-414 57,-406"/>
<polygon style="fill:black;stroke:black;" points="60.3933,-405.119 55,-396 53.5292,-406.492 60.3933,-405.119"/>
<text text-anchor="middle" x="78" y="-418" style="font-family:Times New Roman;font-size:14.00;">r0</text>
</g>
<!-- _6 -->
<g id="node6" class="node"><title>_6</title>
<ellipse style="fill:none;stroke:black;stroke-width:2;" cx="97" cy="-18" rx="18" ry="18"/>
<text text-anchor="middle" x="97" y="-13" style="font-family:Times New Roman;font-size:14.00;">6</text>
</g>
<!-- _1&#45;&gt;_6 -->
<g id="edge6" class="edge"><title>_1&#45;&gt;_6</title>
<path style="fill:none;stroke:black;" d="M97,-450C97,-432 97,-403 97,-378 97,-378 97,-378 97,-108 97,-87 97,-64 97,-46"/>
<polygon style="fill:black;stroke:black;" points="100.5,-46 97,-36 93.5001,-46 100.5,-46"/>
<text text-anchor="middle" x="105" y="-238" style="font-family:Times New Roman;font-size:14.00;">r1</text>
</g>
<!-- _3 -->
<g id="node8" class="node"><title>_3</title>
<ellipse style="fill:none;stroke:black;stroke-width:2;" cx="51" cy="-288" rx="18" ry="18"/>
<text text-anchor="middle" x="51" y="-283" style="font-family:Times New Roman;font-size:14.00;">3</text>
</g>
<!-- _2&#45;&gt;_3 -->
<g id="edge8" class="edge"><title>_2&#45;&gt;_3</title>
<path style="fill:none;stroke:black;" d="M51,-360C51,-347 51,-331 51,-316"/>
<polygon style="fill:black;stroke:black;" points="54.5001,-316 51,-306 47.5001,-316 54.5001,-316"/>
<text text-anchor="middle" x="59" y="-328" style="font-family:Times New Roman;font-size:14.00;">pt</text>
</g>
<!-- _6&#45;&gt;_1 -->
<g id="edge20" class="edge"><title>_6&#45;&gt;_1</title>
<path style="fill:none;stroke:black;" d="M108,-33C119,-50 136,-79 136,-108 136,-378 136,-378 136,-378 136,-402 124,-427 114,-444"/>
<polygon style="fill:black;stroke:black;" points="110.635,-442.738 108,-453 116.459,-446.621 110.635,-442.738"/>
<text text-anchor="middle" x="144" y="-238" style="font-family:Times New Roman;font-size:14.00;">sk</text>
</g>
<!-- _4 -->
<g id="node10" class="node"><title>_4</title>
<ellipse style="fill:none;stroke:black;stroke-width:2;" cx="18" cy="-198" rx="18" ry="18"/>
<text text-anchor="middle" x="18" y="-193" style="font-family:Times New Roman;font-size:14.00;">4</text>
</g>
<!-- _3&#45;&gt;_4 -->
<g id="edge10" class="edge"><title>_3&#45;&gt;_4</title>
<path style="fill:none;stroke:black;" d="M37,-277C29,-271 20,-262 16,-252 12,-243 12,-234 13,-226"/>
<polygon style="fill:black;stroke:black;" points="16.4875,-226.299 14,-216 9.52224,-225.602 16.4875,-226.299"/>
<text text-anchor="middle" x="27" y="-238" style="font-family:Times New Roman;font-size:14.00;">sk</text>
</g>
<!-- _4&#45;&gt;_3 -->
<g id="edge14" class="edge"><title>_4&#45;&gt;_3</title>
<path style="fill:none;stroke:black;" d="M25,-215C28,-221 30,-227 32,-234 36,-243 39,-252 42,-261"/>
<polygon style="fill:black;stroke:black;" points="38.7741,-262.427 45,-271 45.4788,-260.416 38.7741,-262.427"/>
<text text-anchor="middle" x="49" y="-238" style="font-family:Times New Roman;font-size:14.00;">r0</text>
</g>
<!-- _4&#45;&gt;_4 -->
<g id="edge12" class="edge"><title>_4&#45;&gt;_4</title>
<path style="fill:none;stroke:black;" d="M34,-206C44,-208 54,-205 54,-198 54,-194 50,-191 44,-190"/>
<polygon style="fill:black;stroke:black;" points="44,-186.5 34,-190 44,-193.5 44,-186.5"/>
<text text-anchor="middle" x="62" y="-193" style="font-family:Times New Roman;font-size:14.00;">cr</text>
</g>
<!-- _5 -->
<g id="node14" class="node"><title>_5</title>
<ellipse style="fill:none;stroke:black;stroke-width:2;" cx="43" cy="-108" rx="18" ry="18"/>
<text text-anchor="middle" x="43" y="-103" style="font-family:Times New Roman;font-size:14.00;">5</text>
</g>
<!-- _4&#45;&gt;_5 -->
<g id="edge16" class="edge"><title>_4&#45;&gt;_5</title>
<path style="fill:none;stroke:black;" d="M23,-181C26,-168 31,-150 35,-135"/>
<polygon style="fill:black;stroke:black;" points="38.4788,-135.584 38,-125 31.7741,-133.573 38.4788,-135.584"/>
<text text-anchor="middle" x="42" y="-148" style="font-family:Times New Roman;font-size:14.00;">r1</text>
</g>
<!-- _5&#45;&gt;_6 -->
<g id="edge18" class="edge"><title>_5&#45;&gt;_6</title>
<path style="fill:none;stroke:black;" d="M50,-91C54,-80 60,-66 67,-54 70,-49 74,-44 77,-40"/>
<polygon style="fill:black;stroke:black;" points="80.0489,-41.8306 84,-32 74.7809,-37.221 80.0489,-41.8306"/>
<text text-anchor="middle" x="75" y="-58" style="font-family:Times New Roman;font-size:14.00;">pt</text>
</g>
<!--   -->
<g id="node17" class="node"><title> </title>
<text text-anchor="middle" x="97" y="-537" style="font-family:Times New Roman;font-size:14.00;"> </text>
</g>
<!--  &#45;&gt;_1 -->
<g id="edge22" class="edge"><title> &#45;&gt;_1</title>
<path style="fill:none;stroke:blue;" d="M97,-524C97,-515 97,-506 97,-496"/>
<polygon style="fill:blue;stroke:blue;" points="100.5,-496 97,-486 93.5001,-496 100.5,-496"/>
</g>
</g>
</svg>
