<?xml version="1.0" encoding="UTF-8" standalone="no"?>
<!DOCTYPE svg PUBLIC "-//W3C//DTD SVG 1.0//EN"
 "http://www.w3.org/TR/2001/REC-SVG-20010904/DTD/svg10.dtd" [
 <!ATTLIST svg xmlns:xlink CDATA #FIXED "http://www.w3.org/1999/xlink">
]>
<!-- Generated by Graphviz version 2.14.1 (Fri Nov  9 08:19:38 GMT 2007)
     For user: (mdstairs) Micah Stairs -->
<!-- Title: Image Pages: 1 -->
<svg width="160pt" height="748pt"
 viewBox="0.00 0.00 160.00 748.00" xmlns="http://www.w3.org/2000/svg" xmlns:xlink="http://www.w3.org/1999/xlink">
<g id="graph0" class="graph" transform="scale(1 1) rotate(0) translate(4 744)">
<title>Image</title>
<polygon style="fill:white;stroke:white;" points="-4,4 -4,-744 156,-744 156,4 -4,4"/>
<!-- _1 -->
<g id="node1" class="node"><title>_1</title>
<ellipse style="fill:none;stroke:black;stroke-width:2;" cx="120" cy="-648" rx="18" ry="18"/>
<text text-anchor="middle" x="120" y="-643" style="font-family:Times New Roman;font-size:14.00;">1</text>
</g>
<!-- _2 -->
<g id="node3" class="node"><title>_2</title>
<ellipse style="fill:none;stroke:black;stroke-width:2;" cx="72" cy="-558" rx="18" ry="18"/>
<text text-anchor="middle" x="72" y="-553" style="font-family:Times New Roman;font-size:14.00;">2</text>
</g>
<!-- _1&#45;&gt;_2 -->
<g id="edge2" class="edge"><title>_1&#45;&gt;_2</title>
<path style="fill:none;stroke:black;" d="M111,-632C104,-619 94,-599 86,-583"/>
<polygon style="fill:black;stroke:black;" points="88.916,-581.042 81,-574 82.7969,-584.441 88.916,-581.042"/>
<text text-anchor="middle" x="108" y="-598" style="font-family:Times New Roman;font-size:14.00;">gf</text>
</g>
<!-- _3 -->
<g id="node5" class="node"><title>_3</title>
<ellipse style="fill:none;stroke:black;stroke-width:2;" cx="18" cy="-468" rx="18" ry="18"/>
<text text-anchor="middle" x="18" y="-463" style="font-family:Times New Roman;font-size:14.00;">3</text>
</g>
<!-- _2&#45;&gt;_3 -->
<g id="edge4" class="edge"><title>_2&#45;&gt;_3</title>
<path style="fill:none;stroke:black;" d="M60,-544C54,-538 47,-530 42,-522 37,-513 32,-504 29,-495"/>
<polygon style="fill:black;stroke:black;" points="31.9636,-492.985 25,-485 25.4643,-495.585 31.9636,-492.985"/>
<text text-anchor="middle" x="53" y="-508" style="font-family:Times New Roman;font-size:14.00;">s0</text>
</g>
<!-- _4 -->
<g id="node7" class="node"><title>_4</title>
<ellipse style="fill:none;stroke:black;stroke-width:2;" cx="36" cy="-378" rx="18" ry="18"/>
<text text-anchor="middle" x="36" y="-373" style="font-family:Times New Roman;font-size:14.00;">4</text>
</g>
<!-- _3&#45;&gt;_4 -->
<g id="edge6" class="edge"><title>_3&#45;&gt;_4</title>
<path style="fill:none;stroke:black;" d="M22,-450C24,-437 27,-420 31,-406"/>
<polygon style="fill:black;stroke:black;" points="34.4708,-406.492 33,-396 27.6067,-405.119 34.4708,-406.492"/>
<text text-anchor="middle" x="37" y="-418" style="font-family:Times New Roman;font-size:14.00;">tr</text>
</g>
<!-- _4&#45;&gt;_2 -->
<g id="edge8" class="edge"><title>_4&#45;&gt;_2</title>
<path style="fill:none;stroke:black;" d="M42,-395C44,-401 46,-408 48,-414 58,-453 65,-500 69,-530"/>
<polygon style="fill:black;stroke:black;" points="65.5222,-530.398 70,-540 72.4875,-529.701 65.5222,-530.398"/>
<text text-anchor="middle" x="82" y="-463" style="font-family:Times New Roman;font-size:14.00;">tt,ck</text>
</g>
<!-- _5 -->
<g id="node10" class="node"><title>_5</title>
<ellipse style="fill:none;stroke:black;stroke-width:2;" cx="36" cy="-288" rx="18" ry="18"/>
<text text-anchor="middle" x="36" y="-283" style="font-family:Times New Roman;font-size:14.00;">5</text>
</g>
<!-- _4&#45;&gt;_5 -->
<g id="edge10" class="edge"><title>_4&#45;&gt;_5</title>
<path style="fill:none;stroke:black;" d="M36,-360C36,-347 36,-331 36,-316"/>
<polygon style="fill:black;stroke:black;" points="39.5001,-316 36,-306 32.5001,-316 39.5001,-316"/>
<text text-anchor="middle" x="44" y="-328" style="font-family:Times New Roman;font-size:14.00;">rk</text>
</g>
<!-- _6 -->
<g id="node12" class="node"><title>_6</title>
<ellipse style="fill:none;stroke:black;stroke-width:2;" cx="36" cy="-198" rx="18" ry="18"/>
<text text-anchor="middle" x="36" y="-193" style="font-family:Times New Roman;font-size:14.00;">6</text>
</g>
<!-- _5&#45;&gt;_6 -->
<g id="edge12" class="edge"><title>_5&#45;&gt;_6</title>
<path style="fill:none;stroke:black;" d="M36,-270C36,-257 36,-241 36,-226"/>
<polygon style="fill:black;stroke:black;" points="39.5001,-226 36,-216 32.5001,-226 39.5001,-226"/>
<text text-anchor="middle" x="43" y="-238" style="font-family:Times New Roman;font-size:14.00;">gf</text>
</g>
<!-- _7 -->
<g id="node14" class="node"><title>_7</title>
<ellipse style="fill:none;stroke:black;stroke-width:2;" cx="18" cy="-108" rx="18" ry="18"/>
<text text-anchor="middle" x="18" y="-103" style="font-family:Times New Roman;font-size:14.00;">7</text>
</g>
<!-- _6&#45;&gt;_7 -->
<g id="edge14" class="edge"><title>_6&#45;&gt;_7</title>
<path style="fill:none;stroke:black;" d="M32,-180C30,-167 27,-150 23,-136"/>
<polygon style="fill:black;stroke:black;" points="26.3933,-135.119 21,-126 19.5292,-136.492 26.3933,-135.119"/>
<text text-anchor="middle" x="38" y="-148" style="font-family:Times New Roman;font-size:14.00;">s1</text>
</g>
<!-- _8 -->
<g id="node16" class="node"><title>_8</title>
<ellipse style="fill:none;stroke:black;stroke-width:2;" cx="72" cy="-18" rx="18" ry="18"/>
<text text-anchor="middle" x="72" y="-13" style="font-family:Times New Roman;font-size:14.00;">8</text>
</g>
<!-- _7&#45;&gt;_8 -->
<g id="edge16" class="edge"><title>_7&#45;&gt;_8</title>
<path style="fill:none;stroke:black;" d="M25,-91C30,-80 37,-66 44,-54 47,-49 50,-45 54,-40"/>
<polygon style="fill:black;stroke:black;" points="56.8,-42.1 60,-32 51.2,-37.9 56.8,-42.1"/>
<text text-anchor="middle" x="51" y="-58" style="font-family:Times New Roman;font-size:14.00;">tr</text>
</g>
<!-- _8&#45;&gt;_1 -->
<g id="edge20" class="edge"><title>_8&#45;&gt;_1</title>
<path style="fill:none;stroke:black;" d="M87,-29C106,-44 136,-74 136,-108 136,-558 136,-558 136,-558 136,-579 132,-603 128,-620"/>
<polygon style="fill:black;stroke:black;" points="124.521,-619.416 125,-630 131.226,-621.427 124.521,-619.416"/>
<text text-anchor="middle" x="144" y="-328" style="font-family:Times New Roman;font-size:14.00;">rk</text>
</g>
<!-- _8&#45;&gt;_6 -->
<g id="edge18" class="edge"><title>_8&#45;&gt;_6</title>
<path style="fill:none;stroke:black;" d="M71,-36C68,-64 62,-117 50,-162 49,-165 48,-169 47,-173"/>
<polygon style="fill:black;stroke:black;" points="43.8631,-171.44 43,-182 50.2598,-174.283 43.8631,-171.44"/>
<text text-anchor="middle" x="84" y="-103" style="font-family:Times New Roman;font-size:14.00;">tt,ck</text>
</g>
<!--   -->
<g id="node19" class="node"><title> </title>
<text text-anchor="middle" x="120" y="-717" style="font-family:Times New Roman;font-size:14.00;"> </text>
</g>
<!--  &#45;&gt;_1 -->
<g id="edge22" class="edge"><title> &#45;&gt;_1</title>
<path style="fill:none;stroke:blue;" d="M120,-704C120,-695 120,-686 120,-676"/>
<polygon style="fill:blue;stroke:blue;" points="123.5,-676 120,-666 116.5,-676 123.5,-676"/>
</g>
</g>
</svg>
