<?xml version="1.0" encoding="UTF-8" standalone="no"?>
<!DOCTYPE svg PUBLIC "-//W3C//DTD SVG 1.0//EN"
 "http://www.w3.org/TR/2001/REC-SVG-20010904/DTD/svg10.dtd" [
 <!ATTLIST svg xmlns:xlink CDATA #FIXED "http://www.w3.org/1999/xlink">
]>
<!-- Generated by Graphviz version 2.14.1 (Fri Nov  9 08:19:38 GMT 2007)
     For user: (mdstairs) Micah Stairs -->
<!-- Title: Image Pages: 1 -->
<svg width="62pt" height="208pt"
 viewBox="0.00 0.00 62.00 208.00" xmlns="http://www.w3.org/2000/svg" xmlns:xlink="http://www.w3.org/1999/xlink">
<g id="graph0" class="graph" transform="scale(1 1) rotate(0) translate(4 204)">
<title>Image</title>
<polygon style="fill:white;stroke:white;" points="-4,4 -4,-204 58,-204 58,4 -4,4"/>
<!-- _1 -->
<g id="node1" class="node"><title>_1</title>
<ellipse style="fill:none;stroke:black;stroke-width:2;" cx="27" cy="-108" rx="18" ry="18"/>
<text text-anchor="middle" x="27" y="-103" style="font-family:Times New Roman;font-size:14.00;">1</text>
</g>
<!-- _2 -->
<g id="node3" class="node"><title>_2</title>
<ellipse style="fill:none;stroke:black;stroke-width:2;" cx="27" cy="-18" rx="18" ry="18"/>
<text text-anchor="middle" x="27" y="-13" style="font-family:Times New Roman;font-size:14.00;">2</text>
</g>
<!-- _1&#45;&gt;_2 -->
<g id="edge2" class="edge"><title>_1&#45;&gt;_2</title>
<path style="fill:none;stroke:black;" d="M18,-92C15,-86 12,-79 10,-72 9,-64 9,-61 10,-54 11,-50 12,-47 14,-43"/>
<polygon style="fill:black;stroke:black;" points="17.1369,-44.5596 18,-34 10.7402,-41.7166 17.1369,-44.5596"/>
<text text-anchor="middle" x="20" y="-58" style="font-family:Times New Roman;font-size:14.00;">gf</text>
</g>
<!-- _2&#45;&gt;_1 -->
<g id="edge4" class="edge"><title>_2&#45;&gt;_1</title>
<path style="fill:none;stroke:black;" d="M27,-36C27,-49 27,-65 27,-80"/>
<polygon style="fill:black;stroke:black;" points="23.5001,-80 27,-90 30.5001,-80 23.5001,-80"/>
<text text-anchor="middle" x="35" y="-58" style="font-family:Times New Roman;font-size:14.00;">pt</text>
</g>
<!--   -->
<g id="node5" class="node"><title> </title>
<text text-anchor="middle" x="27" y="-177" style="font-family:Times New Roman;font-size:14.00;"> </text>
</g>
<!--  &#45;&gt;_1 -->
<g id="edge6" class="edge"><title> &#45;&gt;_1</title>
<path style="fill:none;stroke:blue;" d="M27,-164C27,-155 27,-146 27,-136"/>
<polygon style="fill:blue;stroke:blue;" points="30.5001,-136 27,-126 23.5001,-136 30.5001,-136"/>
</g>
</g>
</svg>
