<?xml version="1.0" encoding="UTF-8" standalone="no"?>
<!DOCTYPE svg PUBLIC "-//W3C//DTD SVG 1.0//EN"
 "http://www.w3.org/TR/2001/REC-SVG-20010904/DTD/svg10.dtd" [
 <!ATTLIST svg xmlns:xlink CDATA #FIXED "http://www.w3.org/1999/xlink">
]>
<!-- Generated by Graphviz version 2.14.1 (Fri Nov  9 08:19:38 GMT 2007)
     For user: (mdstairs) Micah Stairs -->
<!-- Title: Image Pages: 1 -->
<svg width="343pt" height="580pt"
 viewBox="0.00 0.00 343.00 580.00" xmlns="http://www.w3.org/2000/svg" xmlns:xlink="http://www.w3.org/1999/xlink">
<g id="graph0" class="graph" transform="scale(1 1) rotate(0) translate(4 576)">
<title>Image</title>
<polygon style="fill:white;stroke:white;" points="-4,4 -4,-576 339,-576 339,4 -4,4"/>
<!-- _0 -->
<g id="node1" class="node"><title>_0</title>
<ellipse style="fill:none;stroke:black;stroke-width:2;" cx="123" cy="-480" rx="18" ry="18"/>
<text text-anchor="middle" x="123" y="-475" style="font-family:Times New Roman;font-size:14.00;">0</text>
</g>
<!-- _1 -->
<g id="node3" class="node"><title>_1</title>
<ellipse style="fill:none;stroke:black;stroke-width:2;" cx="82" cy="-390" rx="18" ry="18"/>
<text text-anchor="middle" x="82" y="-385" style="font-family:Times New Roman;font-size:14.00;">1</text>
</g>
<!-- _0&#45;&gt;_1 -->
<g id="edge2" class="edge"><title>_0&#45;&gt;_1</title>
<path style="fill:none;stroke:black;" d="M106,-472C96,-466 82,-456 76,-444 72,-435 72,-426 74,-417"/>
<polygon style="fill:black;stroke:black;" points="77.4708,-417.492 76,-407 70.6067,-416.119 77.4708,-417.492"/>
<text text-anchor="middle" x="116" y="-430" style="font-family:Times New Roman;font-size:14.00;">attch_ptA</text>
</g>
<!-- _6 -->
<g id="node5" class="node"><title>_6</title>
<ellipse style="fill:none;stroke:black;stroke-width:2;" cx="174" cy="-390" rx="18" ry="18"/>
<text text-anchor="middle" x="174" y="-385" style="font-family:Times New Roman;font-size:14.00;">6</text>
</g>
<!-- _0&#45;&gt;_6 -->
<g id="edge4" class="edge"><title>_0&#45;&gt;_6</title>
<path style="fill:none;stroke:black;" d="M134,-466C139,-459 145,-451 149,-444 154,-435 159,-425 163,-416"/>
<polygon style="fill:black;stroke:black;" points="166.137,-417.56 167,-407 159.74,-414.717 166.137,-417.56"/>
<text text-anchor="middle" x="192" y="-430" style="font-family:Times New Roman;font-size:14.00;">attch_ptB</text>
</g>
<!-- _2 -->
<g id="node7" class="node"><title>_2</title>
<ellipse style="fill:none;stroke:black;stroke-width:2;" cx="93" cy="-300" rx="18" ry="18"/>
<text text-anchor="middle" x="93" y="-295" style="font-family:Times New Roman;font-size:14.00;">2</text>
</g>
<!-- _1&#45;&gt;_2 -->
<g id="edge6" class="edge"><title>_1&#45;&gt;_2</title>
<path style="fill:none;stroke:black;" d="M84,-372C86,-359 88,-342 90,-328"/>
<polygon style="fill:black;stroke:black;" points="93.4875,-328.299 91,-318 86.5222,-327.602 93.4875,-328.299"/>
<text text-anchor="middle" x="118" y="-340" style="font-family:Times New Roman;font-size:14.00;">take_pt</text>
</g>
<!-- _7 -->
<g id="node16" class="node"><title>_7</title>
<ellipse style="fill:none;stroke:black;stroke-width:2;" cx="180" cy="-300" rx="18" ry="18"/>
<text text-anchor="middle" x="180" y="-295" style="font-family:Times New Roman;font-size:14.00;">7</text>
</g>
<!-- _6&#45;&gt;_7 -->
<g id="edge16" class="edge"><title>_6&#45;&gt;_7</title>
<path style="fill:none;stroke:black;" d="M175,-372C176,-359 177,-343 178,-328"/>
<polygon style="fill:black;stroke:black;" points="181.488,-328.299 179,-318 174.522,-327.602 181.488,-328.299"/>
<text text-anchor="middle" x="204" y="-340" style="font-family:Times New Roman;font-size:14.00;">take_pt</text>
</g>
<!-- _3 -->
<g id="node9" class="node"><title>_3</title>
<ellipse style="fill:none;stroke:black;stroke-width:2;" cx="83" cy="-210" rx="18" ry="18"/>
<text text-anchor="middle" x="83" y="-205" style="font-family:Times New Roman;font-size:14.00;">3</text>
</g>
<!-- _2&#45;&gt;_3 -->
<g id="edge8" class="edge"><title>_2&#45;&gt;_3</title>
<path style="fill:none;stroke:black;" d="M91,-282C89,-269 88,-252 86,-238"/>
<polygon style="fill:black;stroke:black;" points="89.4778,-237.602 85,-228 82.5125,-238.299 89.4778,-237.602"/>
<text text-anchor="middle" x="117" y="-250" style="font-family:Times New Roman;font-size:14.00;">str_ptA</text>
</g>
<!-- _4 -->
<g id="node11" class="node"><title>_4</title>
<ellipse style="fill:none;stroke:black;stroke-width:2;" cx="71" cy="-120" rx="18" ry="18"/>
<text text-anchor="middle" x="71" y="-115" style="font-family:Times New Roman;font-size:14.00;">4</text>
</g>
<!-- _3&#45;&gt;_4 -->
<g id="edge10" class="edge"><title>_3&#45;&gt;_4</title>
<path style="fill:none;stroke:black;" d="M81,-192C79,-179 77,-162 75,-148"/>
<polygon style="fill:black;stroke:black;" points="78.3933,-147.119 73,-138 71.5292,-148.492 78.3933,-147.119"/>
<text text-anchor="middle" x="105" y="-160" style="font-family:Times New Roman;font-size:14.00;">cmpl_A</text>
</g>
<!-- _5 -->
<g id="node13" class="node"><title>_5</title>
<ellipse style="fill:none;stroke:black;stroke-width:2;" cx="19" cy="-24" rx="18" ry="18"/>
<text text-anchor="middle" x="19" y="-19" style="font-family:Times New Roman;font-size:14.00;">5</text>
</g>
<!-- _4&#45;&gt;_5 -->
<g id="edge12" class="edge"><title>_4&#45;&gt;_5</title>
<path style="fill:none;stroke:black;" d="M62,-104C54,-89 42,-67 33,-49"/>
<polygon style="fill:black;stroke:black;" points="35.916,-47.0418 28,-40 29.7969,-50.4414 35.916,-47.0418"/>
<text text-anchor="middle" x="76" y="-70" style="font-family:Times New Roman;font-size:14.00;">ret_pt</text>
</g>
<!-- _5&#45;&gt;_0 -->
<g id="edge14" class="edge"><title>_5&#45;&gt;_0</title>
<path style="fill:none;stroke:black;" d="M13,-41C8,-60 0,-92 0,-120 0,-390 0,-390 0,-390 0,-436 59,-462 95,-473"/>
<polygon style="fill:black;stroke:black;" points="94.416,-476.479 105,-476 96.4275,-469.774 94.416,-476.479"/>
<text text-anchor="middle" x="38" y="-250" style="font-family:Times New Roman;font-size:14.00;">finA_attch</text>
</g>
<!-- _8 -->
<g id="node18" class="node"><title>_8</title>
<ellipse style="fill:none;stroke:black;stroke-width:2;" cx="184" cy="-210" rx="18" ry="18"/>
<text text-anchor="middle" x="184" y="-205" style="font-family:Times New Roman;font-size:14.00;">8</text>
</g>
<!-- _7&#45;&gt;_8 -->
<g id="edge18" class="edge"><title>_7&#45;&gt;_8</title>
<path style="fill:none;stroke:black;" d="M181,-282C182,-269 183,-253 183,-238"/>
<polygon style="fill:black;stroke:black;" points="186.5,-238 183,-228 179.5,-238 186.5,-238"/>
<text text-anchor="middle" x="209" y="-250" style="font-family:Times New Roman;font-size:14.00;">str_ptB</text>
</g>
<!-- _9 -->
<g id="node20" class="node"><title>_9</title>
<ellipse style="fill:none;stroke:black;stroke-width:2;" cx="191" cy="-120" rx="18" ry="18"/>
<text text-anchor="middle" x="191" y="-115" style="font-family:Times New Roman;font-size:14.00;">9</text>
</g>
<!-- _8&#45;&gt;_9 -->
<g id="edge20" class="edge"><title>_8&#45;&gt;_9</title>
<path style="fill:none;stroke:black;" d="M185,-192C186,-179 187,-163 188,-148"/>
<polygon style="fill:black;stroke:black;" points="191.488,-148.299 189,-138 184.522,-147.602 191.488,-148.299"/>
<text text-anchor="middle" x="213" y="-160" style="font-family:Times New Roman;font-size:14.00;">cmpl_B</text>
</g>
<!-- _10 -->
<g id="node22" class="node"><title>_10</title>
<ellipse style="fill:none;stroke:black;stroke-width:2;" cx="227" cy="-24" rx="24.0416" ry="24.0416"/>
<text text-anchor="middle" x="227" y="-19" style="font-family:Times New Roman;font-size:14.00;">10</text>
</g>
<!-- _9&#45;&gt;_10 -->
<g id="edge22" class="edge"><title>_9&#45;&gt;_10</title>
<path style="fill:none;stroke:black;" d="M192,-102C193,-91 195,-77 200,-66 202,-61 204,-56 207,-52"/>
<polygon style="fill:black;stroke:black;" points="210.203,-53.4414 212,-43 204.084,-50.0418 210.203,-53.4414"/>
<text text-anchor="middle" x="222" y="-70" style="font-family:Times New Roman;font-size:14.00;">ret_pt</text>
</g>
<!-- _10&#45;&gt;_0 -->
<g id="edge24" class="edge"><title>_10&#45;&gt;_0</title>
<path style="fill:none;stroke:black;" d="M239,-45C248,-64 259,-93 259,-120 259,-390 259,-390 259,-390 259,-416 253,-426 233,-444 209,-464 175,-473 151,-477"/>
<polygon style="fill:black;stroke:black;" points="150.602,-473.522 141,-478 151.299,-480.488 150.602,-473.522"/>
<text text-anchor="middle" x="297" y="-250" style="font-family:Times New Roman;font-size:14.00;">finB_attch</text>
</g>
<!--   -->
<g id="node24" class="node"><title> </title>
<text text-anchor="middle" x="123" y="-549" style="font-family:Times New Roman;font-size:14.00;"> </text>
</g>
<!--  &#45;&gt;_0 -->
<g id="edge26" class="edge"><title> &#45;&gt;_0</title>
<path style="fill:none;stroke:blue;" d="M123,-536C123,-527 123,-518 123,-508"/>
<polygon style="fill:blue;stroke:blue;" points="126.5,-508 123,-498 119.5,-508 126.5,-508"/>
</g>
</g>
</svg>
