<?xml version="1.0" encoding="UTF-8" standalone="no"?>
<!DOCTYPE svg PUBLIC "-//W3C//DTD SVG 1.0//EN"
 "http://www.w3.org/TR/2001/REC-SVG-20010904/DTD/svg10.dtd" [
 <!ATTLIST svg xmlns:xlink CDATA #FIXED "http://www.w3.org/1999/xlink">
]>
<!-- Generated by Graphviz version 2.14.1 (Fri Nov  9 08:19:38 GMT 2007)
     For user: (mdstairs) Micah Stairs -->
<!-- Title: Image Pages: 1 -->
<svg width="129pt" height="208pt"
 viewBox="0.00 0.00 129.00 208.00" xmlns="http://www.w3.org/2000/svg" xmlns:xlink="http://www.w3.org/1999/xlink">
<g id="graph0" class="graph" transform="scale(1 1) rotate(0) translate(4 204)">
<title>Image</title>
<polygon style="fill:white;stroke:white;" points="-4,4 -4,-204 125,-204 125,4 -4,4"/>
<!-- _0 -->
<g id="node1" class="node"><title>_0</title>
<ellipse style="fill:none;stroke:black;stroke-width:2;" cx="45" cy="-108" rx="18" ry="18"/>
<text text-anchor="middle" x="45" y="-103" style="font-family:Times New Roman;font-size:14.00;">0</text>
</g>
<!-- _1 -->
<g id="node3" class="node"><title>_1</title>
<ellipse style="fill:none;stroke:black;stroke-width:2;" cx="45" cy="-18" rx="18" ry="18"/>
<text text-anchor="middle" x="45" y="-13" style="font-family:Times New Roman;font-size:14.00;">1</text>
</g>
<!-- _0&#45;&gt;_1 -->
<g id="edge2" class="edge"><title>_0&#45;&gt;_1</title>
<path style="fill:none;stroke:black;" d="M29,-99C20,-93 9,-83 3,-72 0,-64 0,-61 3,-54 7,-46 14,-39 21,-33"/>
<polygon style="fill:black;stroke:black;" points="23.1,-35.8 29,-27 18.9,-30.2 23.1,-35.8"/>
<text text-anchor="middle" x="38" y="-58" style="font-family:Times New Roman;font-size:14.00;">part_ent</text>
</g>
<!-- _1&#45;&gt;_0 -->
<g id="edge4" class="edge"><title>_1&#45;&gt;_0</title>
<path style="fill:none;stroke:black;" d="M56,-33C60,-39 64,-46 66,-54 68,-61 68,-64 66,-72 65,-76 63,-80 61,-84"/>
<polygon style="fill:black;stroke:black;" points="57.7969,-82.5586 56,-93 63.916,-85.9582 57.7969,-82.5586"/>
<text text-anchor="middle" x="94" y="-58" style="font-family:Times New Roman;font-size:14.00;">fin_exit</text>
</g>
<!--   -->
<g id="node5" class="node"><title> </title>
<text text-anchor="middle" x="45" y="-177" style="font-family:Times New Roman;font-size:14.00;"> </text>
</g>
<!--  &#45;&gt;_0 -->
<g id="edge6" class="edge"><title> &#45;&gt;_0</title>
<path style="fill:none;stroke:blue;" d="M45,-164C45,-155 45,-146 45,-136"/>
<polygon style="fill:blue;stroke:blue;" points="48.5001,-136 45,-126 41.5001,-136 48.5001,-136"/>
</g>
</g>
</svg>
