<?xml version="1.0" encoding="UTF-8" standalone="no"?>
<!DOCTYPE svg PUBLIC "-//W3C//DTD SVG 1.0//EN"
 "http://www.w3.org/TR/2001/REC-SVG-20010904/DTD/svg10.dtd" [
 <!ATTLIST svg xmlns:xlink CDATA #FIXED "http://www.w3.org/1999/xlink">
]>
<!-- Generated by Graphviz version 2.14.1 (Fri Nov  9 08:19:38 GMT 2007)
     For user: (mdstairs) Micah Stairs -->
<!-- Title: Image Pages: 1 -->
<svg width="269pt" height="838pt"
 viewBox="0.00 0.00 269.00 838.00" xmlns="http://www.w3.org/2000/svg" xmlns:xlink="http://www.w3.org/1999/xlink">
<g id="graph0" class="graph" transform="scale(1 1) rotate(0) translate(4 834)">
<title>Image</title>
<polygon style="fill:white;stroke:white;" points="-4,4 -4,-834 265,-834 265,4 -4,4"/>
<!-- _0 -->
<g id="node1" class="node"><title>_0</title>
<ellipse style="fill:none;stroke:black;stroke-width:2;" cx="186" cy="-738" rx="18" ry="18"/>
<text text-anchor="middle" x="186" y="-733" style="font-family:Times New Roman;font-size:14.00;">0</text>
</g>
<!-- _1 -->
<g id="node3" class="node"><title>_1</title>
<ellipse style="fill:none;stroke:black;stroke-width:2;" cx="66" cy="-648" rx="18" ry="18"/>
<text text-anchor="middle" x="66" y="-643" style="font-family:Times New Roman;font-size:14.00;">1</text>
</g>
<!-- _0&#45;&gt;_1 -->
<g id="edge2" class="edge"><title>_0&#45;&gt;_1</title>
<path style="fill:none;stroke:black;" d="M170,-729C159,-721 143,-711 130,-702 115,-691 99,-677 88,-667"/>
<polygon style="fill:black;stroke:black;" points="89.8306,-663.951 80,-660 85.221,-669.219 89.8306,-663.951"/>
<text text-anchor="middle" x="166" y="-688" style="font-family:Times New Roman;font-size:14.00;">part_ent</text>
</g>
<!-- _2 -->
<g id="node5" class="node"><title>_2</title>
<ellipse style="fill:none;stroke:black;stroke-width:2;" cx="66" cy="-558" rx="18" ry="18"/>
<text text-anchor="middle" x="66" y="-553" style="font-family:Times New Roman;font-size:14.00;">2</text>
</g>
<!-- _1&#45;&gt;_2 -->
<g id="edge4" class="edge"><title>_1&#45;&gt;_2</title>
<path style="fill:none;stroke:black;" d="M66,-630C66,-617 66,-601 66,-586"/>
<polygon style="fill:black;stroke:black;" points="69.5001,-586 66,-576 62.5001,-586 69.5001,-586"/>
<text text-anchor="middle" x="102" y="-598" style="font-family:Times New Roman;font-size:14.00;">part_arr1</text>
</g>
<!-- _4 -->
<g id="node7" class="node"><title>_4</title>
<ellipse style="fill:none;stroke:black;stroke-width:2;" cx="66" cy="-468" rx="18" ry="18"/>
<text text-anchor="middle" x="66" y="-463" style="font-family:Times New Roman;font-size:14.00;">4</text>
</g>
<!-- _2&#45;&gt;_4 -->
<g id="edge6" class="edge"><title>_2&#45;&gt;_4</title>
<path style="fill:none;stroke:black;" d="M66,-540C66,-527 66,-511 66,-496"/>
<polygon style="fill:black;stroke:black;" points="69.5001,-496 66,-486 62.5001,-496 69.5001,-496"/>
<text text-anchor="middle" x="97" y="-508" style="font-family:Times New Roman;font-size:14.00;">part_lv1</text>
</g>
<!-- _3 -->
<g id="node8" class="node"><title>_3</title>
<ellipse style="fill:none;stroke:black;stroke-width:2;" cx="145" cy="-378" rx="18" ry="18"/>
<text text-anchor="middle" x="145" y="-373" style="font-family:Times New Roman;font-size:14.00;">3</text>
</g>
<!-- _4&#45;&gt;_3 -->
<g id="edge10" class="edge"><title>_4&#45;&gt;_3</title>
<path style="fill:none;stroke:black;" d="M82,-458C92,-452 105,-442 114,-432 121,-424 128,-413 133,-404"/>
<polygon style="fill:black;stroke:black;" points="136.203,-405.441 138,-395 130.084,-402.042 136.203,-405.441"/>
<text text-anchor="middle" x="156" y="-418" style="font-family:Times New Roman;font-size:14.00;">str_exit</text>
</g>
<!-- _5 -->
<g id="node12" class="node"><title>_5</title>
<ellipse style="fill:none;stroke:black;stroke-width:2;" cx="73" cy="-378" rx="18" ry="18"/>
<text text-anchor="middle" x="73" y="-373" style="font-family:Times New Roman;font-size:14.00;">5</text>
</g>
<!-- _4&#45;&gt;_5 -->
<g id="edge12" class="edge"><title>_4&#45;&gt;_5</title>
<path style="fill:none;stroke:black;" d="M52,-456C40,-446 27,-429 34,-414 38,-406 44,-400 50,-394"/>
<polygon style="fill:black;stroke:black;" points="52.779,-396.219 58,-387 48.1694,-390.951 52.779,-396.219"/>
<text text-anchor="middle" x="76" y="-418" style="font-family:Times New Roman;font-size:14.00;">partLvExit</text>
</g>
<!-- _3&#45;&gt;_0 -->
<g id="edge8" class="edge"><title>_3&#45;&gt;_0</title>
<path style="fill:none;stroke:black;" d="M160,-388C170,-394 181,-403 188,-414 202,-434 207,-442 207,-468 207,-648 207,-648 207,-648 207,-670 201,-694 195,-711"/>
<polygon style="fill:black;stroke:black;" points="191.521,-710.416 192,-721 198.226,-712.427 191.521,-710.416"/>
<text text-anchor="middle" x="234" y="-553" style="font-family:Times New Roman;font-size:14.00;">fin_exit</text>
</g>
<!-- _6 -->
<g id="node14" class="node"><title>_6</title>
<ellipse style="fill:none;stroke:black;stroke-width:2;" cx="81" cy="-288" rx="18" ry="18"/>
<text text-anchor="middle" x="81" y="-283" style="font-family:Times New Roman;font-size:14.00;">6</text>
</g>
<!-- _5&#45;&gt;_6 -->
<g id="edge14" class="edge"><title>_5&#45;&gt;_6</title>
<path style="fill:none;stroke:black;" d="M75,-360C76,-347 77,-331 78,-316"/>
<polygon style="fill:black;stroke:black;" points="81.4875,-316.299 79,-306 74.5222,-315.602 81.4875,-316.299"/>
<text text-anchor="middle" x="115" y="-328" style="font-family:Times New Roman;font-size:14.00;">part_arr2</text>
</g>
<!-- _7 -->
<g id="node16" class="node"><title>_7</title>
<ellipse style="fill:none;stroke:black;stroke-width:2;" cx="54" cy="-198" rx="18" ry="18"/>
<text text-anchor="middle" x="54" y="-193" style="font-family:Times New Roman;font-size:14.00;">7</text>
</g>
<!-- _6&#45;&gt;_7 -->
<g id="edge16" class="edge"><title>_6&#45;&gt;_7</title>
<path style="fill:none;stroke:black;" d="M76,-271C72,-258 67,-240 62,-225"/>
<polygon style="fill:black;stroke:black;" points="65.2259,-223.573 59,-215 58.5212,-225.584 65.2259,-223.573"/>
<text text-anchor="middle" x="132" y="-238" style="font-family:Times New Roman;font-size:14.00;">recog_A,recog_B</text>
</g>
<!-- _8 -->
<g id="node18" class="node"><title>_8</title>
<ellipse style="fill:none;stroke:black;stroke-width:2;" cx="47" cy="-108" rx="18" ry="18"/>
<text text-anchor="middle" x="47" y="-103" style="font-family:Times New Roman;font-size:14.00;">8</text>
</g>
<!-- _7&#45;&gt;_8 -->
<g id="edge18" class="edge"><title>_7&#45;&gt;_8</title>
<path style="fill:none;stroke:black;" d="M53,-180C52,-167 51,-151 50,-136"/>
<polygon style="fill:black;stroke:black;" points="53.4778,-135.602 49,-126 46.5125,-136.299 53.4778,-135.602"/>
<text text-anchor="middle" x="83" y="-148" style="font-family:Times New Roman;font-size:14.00;">part_lv2</text>
</g>
<!-- _9 -->
<g id="node20" class="node"><title>_9</title>
<ellipse style="fill:none;stroke:black;stroke-width:2;" cx="20" cy="-18" rx="18" ry="18"/>
<text text-anchor="middle" x="20" y="-13" style="font-family:Times New Roman;font-size:14.00;">9</text>
</g>
<!-- _8&#45;&gt;_9 -->
<g id="edge20" class="edge"><title>_8&#45;&gt;_9</title>
<path style="fill:none;stroke:black;" d="M42,-91C38,-78 33,-60 28,-45"/>
<polygon style="fill:black;stroke:black;" points="31.2259,-43.5725 25,-35 24.5212,-45.584 31.2259,-43.5725"/>
<text text-anchor="middle" x="72" y="-58" style="font-family:Times New Roman;font-size:14.00;">part_arr3</text>
</g>
<!-- _9&#45;&gt;_1 -->
<g id="edge22" class="edge"><title>_9&#45;&gt;_1</title>
<path style="fill:none;stroke:black;" d="M14,-35C8,-53 0,-82 0,-108 0,-558 0,-558 0,-558 0,-588 24,-614 43,-631"/>
<polygon style="fill:black;stroke:black;" points="41.1694,-634.049 51,-638 45.779,-628.781 41.1694,-634.049"/>
<text text-anchor="middle" x="30" y="-328" style="font-family:Times New Roman;font-size:14.00;">part_lv3</text>
</g>
<!--   -->
<g id="node22" class="node"><title> </title>
<text text-anchor="middle" x="186" y="-807" style="font-family:Times New Roman;font-size:14.00;"> </text>
</g>
<!--  &#45;&gt;_0 -->
<g id="edge24" class="edge"><title> &#45;&gt;_0</title>
<path style="fill:none;stroke:blue;" d="M186,-794C186,-785 186,-776 186,-766"/>
<polygon style="fill:blue;stroke:blue;" points="189.5,-766 186,-756 182.5,-766 189.5,-766"/>
</g>
</g>
</svg>
