<?xml version="1.0" encoding="UTF-8" standalone="no"?>
<!DOCTYPE svg PUBLIC "-//W3C//DTD SVG 1.0//EN"
 "http://www.w3.org/TR/2001/REC-SVG-20010904/DTD/svg10.dtd" [
 <!ATTLIST svg xmlns:xlink CDATA #FIXED "http://www.w3.org/1999/xlink">
]>
<!-- Generated by Graphviz version 2.14.1 (Fri Nov  9 08:19:38 GMT 2007)
     For user: (mdstairs) Micah Stairs -->
<!-- Title: Image Pages: 1 -->
<svg width="252pt" height="298pt"
 viewBox="0.00 0.00 252.00 298.00" xmlns="http://www.w3.org/2000/svg" xmlns:xlink="http://www.w3.org/1999/xlink">
<g id="graph0" class="graph" transform="scale(1 1) rotate(0) translate(4 294)">
<title>Image</title>
<polygon style="fill:white;stroke:white;" points="-4,4 -4,-294 248,-294 248,4 -4,4"/>
<!-- _0 -->
<g id="node1" class="node"><title>_0</title>
<ellipse style="fill:none;stroke:black;stroke-width:2;" cx="154" cy="-198" rx="18" ry="18"/>
<text text-anchor="middle" x="154" y="-193" style="font-family:Times New Roman;font-size:14.00;">0</text>
</g>
<!-- _1 -->
<g id="node3" class="node"><title>_1</title>
<ellipse style="fill:none;stroke:black;stroke-width:2;" cx="18" cy="-108" rx="18" ry="18"/>
<text text-anchor="middle" x="18" y="-103" style="font-family:Times New Roman;font-size:14.00;">1</text>
</g>
<!-- _0&#45;&gt;_1 -->
<g id="edge2" class="edge"><title>_0&#45;&gt;_1</title>
<path style="fill:none;stroke:black;" d="M139,-188C116,-173 70,-143 42,-124"/>
<polygon style="fill:black;stroke:black;" points="43.262,-120.635 33,-118 39.3791,-126.459 43.262,-120.635"/>
<text text-anchor="middle" x="134" y="-148" style="font-family:Times New Roman;font-size:14.00;">start_pol</text>
</g>
<!-- _1&#45;&gt;_1 -->
<g id="edge4" class="edge"><title>_1&#45;&gt;_1</title>
<path style="fill:none;stroke:black;" d="M34,-116C44,-118 54,-115 54,-108 54,-104 50,-101 44,-100"/>
<polygon style="fill:black;stroke:black;" points="44,-96.5001 34,-100 44,-103.5 44,-96.5001"/>
<text text-anchor="middle" x="109" y="-103" style="font-family:Times New Roman;font-size:14.00;">dip_acid,polish</text>
</g>
<!-- _2 -->
<g id="node6" class="node"><title>_2</title>
<ellipse style="fill:none;stroke:black;stroke-width:2;" cx="137" cy="-18" rx="18" ry="18"/>
<text text-anchor="middle" x="137" y="-13" style="font-family:Times New Roman;font-size:14.00;">2</text>
</g>
<!-- _1&#45;&gt;_2 -->
<g id="edge6" class="edge"><title>_1&#45;&gt;_2</title>
<path style="fill:none;stroke:black;" d="M33,-97C53,-82 90,-53 115,-35"/>
<polygon style="fill:black;stroke:black;" points="117.1,-37.8 123,-29 112.9,-32.2 117.1,-37.8"/>
<text text-anchor="middle" x="118" y="-58" style="font-family:Times New Roman;font-size:14.00;">str_rlse</text>
</g>
<!-- _2&#45;&gt;_0 -->
<g id="edge8" class="edge"><title>_2&#45;&gt;_0</title>
<path style="fill:none;stroke:black;" d="M147,-33C156,-47 168,-69 173,-90 180,-121 178,-130 171,-162 170,-166 169,-169 167,-173"/>
<polygon style="fill:black;stroke:black;" points="163.863,-171.44 163,-182 170.26,-174.283 163.863,-171.44"/>
<text text-anchor="middle" x="210" y="-103" style="font-family:Times New Roman;font-size:14.00;">comp_pol</text>
</g>
<!--   -->
<g id="node8" class="node"><title> </title>
<text text-anchor="middle" x="154" y="-267" style="font-family:Times New Roman;font-size:14.00;"> </text>
</g>
<!--  &#45;&gt;_0 -->
<g id="edge10" class="edge"><title> &#45;&gt;_0</title>
<path style="fill:none;stroke:blue;" d="M154,-254C154,-245 154,-236 154,-226"/>
<polygon style="fill:blue;stroke:blue;" points="157.5,-226 154,-216 150.5,-226 157.5,-226"/>
</g>
</g>
</svg>
