<?xml version="1.0" encoding="UTF-8" standalone="no"?>
<!DOCTYPE svg PUBLIC "-//W3C//DTD SVG 1.0//EN"
 "http://www.w3.org/TR/2001/REC-SVG-20010904/DTD/svg10.dtd" [
 <!ATTLIST svg xmlns:xlink CDATA #FIXED "http://www.w3.org/1999/xlink">
]>
<!-- Generated by Graphviz version 2.14.1 (Fri Nov  9 08:19:38 GMT 2007)
     For user: (mdstairs) Micah Stairs -->
<!-- Title: Image Pages: 1 -->
<svg width="335pt" height="1462pt"
 viewBox="0.00 0.00 335.00 1462.00" xmlns="http://www.w3.org/2000/svg" xmlns:xlink="http://www.w3.org/1999/xlink">
<g id="graph0" class="graph" transform="scale(1 1) rotate(0) translate(4 1458)">
<title>Image</title>
<polygon style="fill:white;stroke:white;" points="-4,4 -4,-1458 331,-1458 331,4 -4,4"/>
<!-- _0 -->
<g id="node1" class="node"><title>_0</title>
<ellipse style="fill:none;stroke:black;stroke-width:2;" cx="237" cy="-1362" rx="18" ry="18"/>
<text text-anchor="middle" x="237" y="-1357" style="font-family:Times New Roman;font-size:14.00;">0</text>
</g>
<!-- _0&#45;&gt;_0 -->
<g id="edge2" class="edge"><title>_0&#45;&gt;_0</title>
<path style="fill:none;stroke:black;" d="M254,-1368C264,-1370 273,-1368 273,-1362 273,-1358 269,-1356 264,-1355"/>
<polygon style="fill:black;stroke:black;" points="263.602,-1351.52 254,-1356 264.299,-1358.49 263.602,-1351.52"/>
<text text-anchor="middle" x="300" y="-1357" style="font-family:Times New Roman;font-size:14.00;">fin_exit</text>
</g>
<!-- _1 -->
<g id="node4" class="node"><title>_1</title>
<ellipse style="fill:none;stroke:black;stroke-width:2;" cx="72" cy="-1272" rx="18" ry="18"/>
<text text-anchor="middle" x="72" y="-1267" style="font-family:Times New Roman;font-size:14.00;">1</text>
</g>
<!-- _0&#45;&gt;_1 -->
<g id="edge4" class="edge"><title>_0&#45;&gt;_1</title>
<path style="fill:none;stroke:black;" d="M220,-1355C205,-1347 181,-1336 161,-1326 139,-1314 114,-1299 96,-1287"/>
<polygon style="fill:black;stroke:black;" points="97.4414,-1283.8 87,-1282 94.0418,-1289.92 97.4414,-1283.8"/>
<text text-anchor="middle" x="199" y="-1312" style="font-family:Times New Roman;font-size:14.00;">part_ent</text>
</g>
<!-- _2 -->
<g id="node6" class="node"><title>_2</title>
<ellipse style="fill:none;stroke:black;stroke-width:2;" cx="31" cy="-1182" rx="18" ry="18"/>
<text text-anchor="middle" x="31" y="-1177" style="font-family:Times New Roman;font-size:14.00;">2</text>
</g>
<!-- _1&#45;&gt;_2 -->
<g id="edge6" class="edge"><title>_1&#45;&gt;_2</title>
<path style="fill:none;stroke:black;" d="M64,-1255C58,-1242 50,-1223 43,-1208"/>
<polygon style="fill:black;stroke:black;" points="46.2598,-1206.72 39,-1199 39.8631,-1209.56 46.2598,-1206.72"/>
<text text-anchor="middle" x="92" y="-1222" style="font-family:Times New Roman;font-size:14.00;">part_arr1</text>
</g>
<!-- _3 -->
<g id="node8" class="node"><title>_3</title>
<ellipse style="fill:none;stroke:black;stroke-width:2;" cx="21" cy="-1092" rx="18" ry="18"/>
<text text-anchor="middle" x="21" y="-1087" style="font-family:Times New Roman;font-size:14.00;">3</text>
</g>
<!-- _2&#45;&gt;_3 -->
<g id="edge8" class="edge"><title>_2&#45;&gt;_3</title>
<path style="fill:none;stroke:black;" d="M29,-1164C27,-1151 26,-1134 24,-1120"/>
<polygon style="fill:black;stroke:black;" points="27.4778,-1119.6 23,-1110 20.5125,-1120.3 27.4778,-1119.6"/>
<text text-anchor="middle" x="62" y="-1132" style="font-family:Times New Roman;font-size:14.00;">start_pol</text>
</g>
<!-- _4 -->
<g id="node10" class="node"><title>_4</title>
<ellipse style="fill:none;stroke:black;stroke-width:2;" cx="18" cy="-1002" rx="18" ry="18"/>
<text text-anchor="middle" x="18" y="-997" style="font-family:Times New Roman;font-size:14.00;">4</text>
</g>
<!-- _3&#45;&gt;_4 -->
<g id="edge10" class="edge"><title>_3&#45;&gt;_4</title>
<path style="fill:none;stroke:black;" d="M20,-1074C20,-1061 19,-1045 19,-1030"/>
<polygon style="fill:black;stroke:black;" points="22.5001,-1030 19,-1020 15.5001,-1030 22.5001,-1030"/>
<text text-anchor="middle" x="56" y="-1042" style="font-family:Times New Roman;font-size:14.00;">comp_pol</text>
</g>
<!-- _5 -->
<g id="node12" class="node"><title>_5</title>
<ellipse style="fill:none;stroke:black;stroke-width:2;" cx="18" cy="-912" rx="18" ry="18"/>
<text text-anchor="middle" x="18" y="-907" style="font-family:Times New Roman;font-size:14.00;">5</text>
</g>
<!-- _4&#45;&gt;_5 -->
<g id="edge12" class="edge"><title>_4&#45;&gt;_5</title>
<path style="fill:none;stroke:black;" d="M18,-984C18,-971 18,-955 18,-940"/>
<polygon style="fill:black;stroke:black;" points="21.5001,-940 18,-930 14.5001,-940 21.5001,-940"/>
<text text-anchor="middle" x="49" y="-952" style="font-family:Times New Roman;font-size:14.00;">part_lv1</text>
</g>
<!-- _5&#45;&gt;_5 -->
<g id="edge14" class="edge"><title>_5&#45;&gt;_5</title>
<path style="fill:none;stroke:black;" d="M34,-920C44,-922 54,-919 54,-912 54,-908 50,-905 44,-904"/>
<polygon style="fill:black;stroke:black;" points="44,-900.5 34,-904 44,-907.5 44,-900.5"/>
<text text-anchor="middle" x="132" y="-907" style="font-family:Times New Roman;font-size:14.00;">partLvExit,part_arr2</text>
</g>
<!-- _6 -->
<g id="node15" class="node"><title>_6</title>
<ellipse style="fill:none;stroke:black;stroke-width:2;" cx="18" cy="-822" rx="18" ry="18"/>
<text text-anchor="middle" x="18" y="-817" style="font-family:Times New Roman;font-size:14.00;">6</text>
</g>
<!-- _5&#45;&gt;_6 -->
<g id="edge16" class="edge"><title>_5&#45;&gt;_6</title>
<path style="fill:none;stroke:black;" d="M18,-894C18,-881 18,-865 18,-850"/>
<polygon style="fill:black;stroke:black;" points="21.5001,-850 18,-840 14.5001,-850 21.5001,-850"/>
<text text-anchor="middle" x="47" y="-862" style="font-family:Times New Roman;font-size:14.00;">recog_A</text>
</g>
<!-- _8 -->
<g id="node17" class="node"><title>_8</title>
<ellipse style="fill:none;stroke:black;stroke-width:2;" cx="111" cy="-822" rx="18" ry="18"/>
<text text-anchor="middle" x="111" y="-817" style="font-family:Times New Roman;font-size:14.00;">8</text>
</g>
<!-- _5&#45;&gt;_8 -->
<g id="edge18" class="edge"><title>_5&#45;&gt;_8</title>
<path style="fill:none;stroke:black;" d="M35,-905C48,-899 67,-889 80,-876 88,-868 95,-857 100,-848"/>
<polygon style="fill:black;stroke:black;" points="103.137,-849.56 104,-839 96.7402,-846.717 103.137,-849.56"/>
<text text-anchor="middle" x="123" y="-862" style="font-family:Times New Roman;font-size:14.00;">recog_B</text>
</g>
<!-- _7 -->
<g id="node19" class="node"><title>_7</title>
<ellipse style="fill:none;stroke:black;stroke-width:2;" cx="18" cy="-732" rx="18" ry="18"/>
<text text-anchor="middle" x="18" y="-727" style="font-family:Times New Roman;font-size:14.00;">7</text>
</g>
<!-- _6&#45;&gt;_7 -->
<g id="edge20" class="edge"><title>_6&#45;&gt;_7</title>
<path style="fill:none;stroke:black;" d="M18,-804C18,-791 18,-775 18,-760"/>
<polygon style="fill:black;stroke:black;" points="21.5001,-760 18,-750 14.5001,-760 21.5001,-760"/>
<text text-anchor="middle" x="55" y="-772" style="font-family:Times New Roman;font-size:14.00;">attch_ptA</text>
</g>
<!-- _9 -->
<g id="node23" class="node"><title>_9</title>
<ellipse style="fill:none;stroke:black;stroke-width:2;" cx="116" cy="-732" rx="18" ry="18"/>
<text text-anchor="middle" x="116" y="-727" style="font-family:Times New Roman;font-size:14.00;">9</text>
</g>
<!-- _8&#45;&gt;_9 -->
<g id="edge24" class="edge"><title>_8&#45;&gt;_9</title>
<path style="fill:none;stroke:black;" d="M112,-804C113,-791 114,-775 114,-760"/>
<polygon style="fill:black;stroke:black;" points="117.488,-760.299 115,-750 110.522,-759.602 117.488,-760.299"/>
<text text-anchor="middle" x="152" y="-772" style="font-family:Times New Roman;font-size:14.00;">attch_ptB</text>
</g>
<!-- _10 -->
<g id="node21" class="node"><title>_10</title>
<ellipse style="fill:none;stroke:black;stroke-width:2;" cx="117" cy="-636" rx="24.0416" ry="24.0416"/>
<text text-anchor="middle" x="117" y="-631" style="font-family:Times New Roman;font-size:14.00;">10</text>
</g>
<!-- _7&#45;&gt;_10 -->
<g id="edge22" class="edge"><title>_7&#45;&gt;_10</title>
<path style="fill:none;stroke:black;" d="M21,-714C24,-703 28,-688 37,-678 49,-663 68,-653 84,-647"/>
<polygon style="fill:black;stroke:black;" points="86.0151,-649.964 94,-643 83.4153,-643.464 86.0151,-649.964"/>
<text text-anchor="middle" x="75" y="-682" style="font-family:Times New Roman;font-size:14.00;">finA_attch</text>
</g>
<!-- _11 -->
<g id="node26" class="node"><title>_11</title>
<ellipse style="fill:none;stroke:black;stroke-width:2;" cx="134" cy="-534" rx="24.0416" ry="24.0416"/>
<text text-anchor="middle" x="134" y="-529" style="font-family:Times New Roman;font-size:14.00;">11</text>
</g>
<!-- _10&#45;&gt;_11 -->
<g id="edge28" class="edge"><title>_10&#45;&gt;_11</title>
<path style="fill:none;stroke:black;" d="M121,-612C123,-599 126,-582 128,-568"/>
<polygon style="fill:black;stroke:black;" points="131.471,-568.492 130,-558 124.607,-567.119 131.471,-568.492"/>
<text text-anchor="middle" x="159" y="-580" style="font-family:Times New Roman;font-size:14.00;">part_lv2</text>
</g>
<!-- _9&#45;&gt;_10 -->
<g id="edge26" class="edge"><title>_9&#45;&gt;_10</title>
<path style="fill:none;stroke:black;" d="M116,-714C116,-702 116,-685 117,-670"/>
<polygon style="fill:black;stroke:black;" points="120.5,-670 117,-660 113.5,-670 120.5,-670"/>
<text text-anchor="middle" x="155" y="-682" style="font-family:Times New Roman;font-size:14.00;">finB_attch</text>
</g>
<!-- _12 -->
<g id="node28" class="node"><title>_12</title>
<ellipse style="fill:none;stroke:black;stroke-width:2;" cx="138" cy="-432" rx="24.0416" ry="24.0416"/>
<text text-anchor="middle" x="138" y="-427" style="font-family:Times New Roman;font-size:14.00;">12</text>
</g>
<!-- _11&#45;&gt;_12 -->
<g id="edge30" class="edge"><title>_11&#45;&gt;_12</title>
<path style="fill:none;stroke:black;" d="M135,-510C136,-497 136,-481 136,-466"/>
<polygon style="fill:black;stroke:black;" points="139.488,-466.299 137,-456 132.522,-465.602 139.488,-466.299"/>
<text text-anchor="middle" x="173" y="-478" style="font-family:Times New Roman;font-size:14.00;">part_arr3</text>
</g>
<!-- _13 -->
<g id="node30" class="node"><title>_13</title>
<ellipse style="fill:none;stroke:black;stroke-width:2;" cx="140" cy="-330" rx="22.838" ry="23.3345"/>
<text text-anchor="middle" x="140" y="-325" style="font-family:Times New Roman;font-size:14.00;">13</text>
</g>
<!-- _12&#45;&gt;_13 -->
<g id="edge32" class="edge"><title>_12&#45;&gt;_13</title>
<path style="fill:none;stroke:black;" d="M138,-408C139,-395 139,-379 139,-364"/>
<polygon style="fill:black;stroke:black;" points="142.5,-364 139,-354 135.5,-364 142.5,-364"/>
<text text-anchor="middle" x="178" y="-376" style="font-family:Times New Roman;font-size:14.00;">start_case</text>
</g>
<!-- _14 -->
<g id="node32" class="node"><title>_14</title>
<ellipse style="fill:none;stroke:black;stroke-width:2;" cx="141" cy="-228" rx="24.0416" ry="24.0416"/>
<text text-anchor="middle" x="141" y="-223" style="font-family:Times New Roman;font-size:14.00;">14</text>
</g>
<!-- _13&#45;&gt;_14 -->
<g id="edge34" class="edge"><title>_13&#45;&gt;_14</title>
<path style="fill:none;stroke:black;" d="M140,-306C141,-293 141,-277 141,-262"/>
<polygon style="fill:black;stroke:black;" points="144.5,-262 141,-252 137.5,-262 144.5,-262"/>
<text text-anchor="middle" x="183" y="-274" style="font-family:Times New Roman;font-size:14.00;">compl_case</text>
</g>
<!-- _15 -->
<g id="node34" class="node"><title>_15</title>
<ellipse style="fill:none;stroke:black;stroke-width:2;" cx="150" cy="-126" rx="24.0416" ry="24.0416"/>
<text text-anchor="middle" x="150" y="-121" style="font-family:Times New Roman;font-size:14.00;">15</text>
</g>
<!-- _14&#45;&gt;_15 -->
<g id="edge36" class="edge"><title>_14&#45;&gt;_15</title>
<path style="fill:none;stroke:black;" d="M143,-204C145,-191 146,-175 147,-160"/>
<polygon style="fill:black;stroke:black;" points="150.488,-160.299 148,-150 143.522,-159.602 150.488,-160.299"/>
<text text-anchor="middle" x="177" y="-172" style="font-family:Times New Roman;font-size:14.00;">part_lv3</text>
</g>
<!-- _16 -->
<g id="node36" class="node"><title>_16</title>
<ellipse style="fill:none;stroke:black;stroke-width:2;" cx="194" cy="-24" rx="24.0416" ry="24.0416"/>
<text text-anchor="middle" x="194" y="-19" style="font-family:Times New Roman;font-size:14.00;">16</text>
</g>
<!-- _15&#45;&gt;_16 -->
<g id="edge38" class="edge"><title>_15&#45;&gt;_16</title>
<path style="fill:none;stroke:black;" d="M148,-102C147,-90 148,-77 153,-66 156,-58 162,-52 167,-46"/>
<polygon style="fill:black;stroke:black;" points="169.779,-48.2191 175,-39 165.169,-42.9511 169.779,-48.2191"/>
<text text-anchor="middle" x="189" y="-70" style="font-family:Times New Roman;font-size:14.00;">part_arr1</text>
</g>
<!-- _16&#45;&gt;_0 -->
<g id="edge42" class="edge"><title>_16&#45;&gt;_0</title>
<path style="fill:none;stroke:black;" d="M210,-42C215,-49 220,-58 224,-66 236,-90 238,-98 238,-126 238,-1272 238,-1272 238,-1272 238,-1293 238,-1316 237,-1334"/>
<polygon style="fill:black;stroke:black;" points="233.5,-1334 237,-1344 240.5,-1334 233.5,-1334"/>
<text text-anchor="middle" x="266" y="-727" style="font-family:Times New Roman;font-size:14.00;">str_exit</text>
</g>
<!-- _16&#45;&gt;_16 -->
<g id="edge40" class="edge"><title>_16&#45;&gt;_16</title>
<path style="fill:none;stroke:black;" d="M216,-33C227,-34 236,-31 236,-24 236,-19 232,-17 226,-15"/>
<polygon style="fill:black;stroke:black;" points="226,-11.5001 216,-15 226,-18.5001 226,-11.5001"/>
<text text-anchor="middle" x="266" y="-19" style="font-family:Times New Roman;font-size:14.00;">part_lv1</text>
</g>
<!--   -->
<g id="node39" class="node"><title> </title>
<text text-anchor="middle" x="237" y="-1431" style="font-family:Times New Roman;font-size:14.00;"> </text>
</g>
<!--  &#45;&gt;_0 -->
<g id="edge44" class="edge"><title> &#45;&gt;_0</title>
<path style="fill:none;stroke:blue;" d="M237,-1418C237,-1409 237,-1400 237,-1390"/>
<polygon style="fill:blue;stroke:blue;" points="240.5,-1390 237,-1380 233.5,-1390 240.5,-1390"/>
</g>
</g>
</svg>
