<?xml version="1.0" encoding="UTF-8" standalone="no"?>
<!DOCTYPE svg PUBLIC "-//W3C//DTD SVG 1.0//EN"
 "http://www.w3.org/TR/2001/REC-SVG-20010904/DTD/svg10.dtd" [
 <!ATTLIST svg xmlns:xlink CDATA #FIXED "http://www.w3.org/1999/xlink">
]>
<!-- Generated by Graphviz version 2.14.1 (Fri Nov  9 08:19:38 GMT 2007)
     For user: (mdstairs) Micah Stairs -->
<!-- Title: Image Pages: 1 -->
<svg width="301pt" height="388pt"
 viewBox="0.00 0.00 301.00 388.00" xmlns="http://www.w3.org/2000/svg" xmlns:xlink="http://www.w3.org/1999/xlink">
<g id="graph0" class="graph" transform="scale(1 1) rotate(0) translate(4 384)">
<title>Image</title>
<polygon style="fill:white;stroke:white;" points="-4,4 -4,-384 297,-384 297,4 -4,4"/>
<!-- _0 -->
<g id="node1" class="node"><title>_0</title>
<ellipse style="fill:none;stroke:black;stroke-width:2;" cx="135" cy="-288" rx="18" ry="18"/>
<text text-anchor="middle" x="135" y="-283" style="font-family:Times New Roman;font-size:14.00;">0</text>
</g>
<!-- _1 -->
<g id="node3" class="node"><title>_1</title>
<ellipse style="fill:none;stroke:black;stroke-width:2;" cx="94" cy="-198" rx="18" ry="18"/>
<text text-anchor="middle" x="94" y="-193" style="font-family:Times New Roman;font-size:14.00;">1</text>
</g>
<!-- _0&#45;&gt;_1 -->
<g id="edge2" class="edge"><title>_0&#45;&gt;_1</title>
<path style="fill:none;stroke:black;" d="M121,-276C114,-270 106,-261 101,-252 97,-244 95,-235 95,-226"/>
<polygon style="fill:black;stroke:black;" points="98.4778,-225.602 94,-216 91.5125,-226.299 98.4778,-225.602"/>
<text text-anchor="middle" x="132" y="-238" style="font-family:Times New Roman;font-size:14.00;">take_pt</text>
</g>
<!-- _2 -->
<g id="node5" class="node"><title>_2</title>
<ellipse style="fill:none;stroke:black;stroke-width:2;" cx="18" cy="-108" rx="18" ry="18"/>
<text text-anchor="middle" x="18" y="-103" style="font-family:Times New Roman;font-size:14.00;">2</text>
</g>
<!-- _1&#45;&gt;_2 -->
<g id="edge4" class="edge"><title>_1&#45;&gt;_2</title>
<path style="fill:none;stroke:black;" d="M77,-191C64,-185 47,-175 36,-162 30,-155 26,-145 24,-136"/>
<polygon style="fill:black;stroke:black;" points="27.2259,-134.573 21,-126 20.5212,-136.584 27.2259,-134.573"/>
<text text-anchor="middle" x="66" y="-148" style="font-family:Times New Roman;font-size:14.00;">str_ptA</text>
</g>
<!-- _3 -->
<g id="node7" class="node"><title>_3</title>
<ellipse style="fill:none;stroke:black;stroke-width:2;" cx="94" cy="-108" rx="18" ry="18"/>
<text text-anchor="middle" x="94" y="-103" style="font-family:Times New Roman;font-size:14.00;">3</text>
</g>
<!-- _1&#45;&gt;_3 -->
<g id="edge6" class="edge"><title>_1&#45;&gt;_3</title>
<path style="fill:none;stroke:black;" d="M94,-180C94,-167 94,-151 94,-136"/>
<polygon style="fill:black;stroke:black;" points="97.5001,-136 94,-126 90.5001,-136 97.5001,-136"/>
<text text-anchor="middle" x="121" y="-148" style="font-family:Times New Roman;font-size:14.00;">str_ptB</text>
</g>
<!-- _4 -->
<g id="node9" class="node"><title>_4</title>
<ellipse style="fill:none;stroke:black;stroke-width:2;" cx="94" cy="-18" rx="18" ry="18"/>
<text text-anchor="middle" x="94" y="-13" style="font-family:Times New Roman;font-size:14.00;">4</text>
</g>
<!-- _2&#45;&gt;_4 -->
<g id="edge8" class="edge"><title>_2&#45;&gt;_4</title>
<path style="fill:none;stroke:black;" d="M21,-90C24,-79 29,-64 38,-54 46,-44 58,-36 68,-30"/>
<polygon style="fill:black;stroke:black;" points="69.9582,-32.916 77,-25 66.5586,-26.7969 69.9582,-32.916"/>
<text text-anchor="middle" x="64" y="-58" style="font-family:Times New Roman;font-size:14.00;">cmpl_A</text>
</g>
<!-- _3&#45;&gt;_4 -->
<g id="edge10" class="edge"><title>_3&#45;&gt;_4</title>
<path style="fill:none;stroke:black;" d="M94,-90C94,-77 94,-61 94,-46"/>
<polygon style="fill:black;stroke:black;" points="97.5001,-46 94,-36 90.5001,-46 97.5001,-46"/>
<text text-anchor="middle" x="120" y="-58" style="font-family:Times New Roman;font-size:14.00;">cmpl_B</text>
</g>
<!-- _4&#45;&gt;_0 -->
<g id="edge12" class="edge"><title>_4&#45;&gt;_0</title>
<path style="fill:none;stroke:black;" d="M111,-24C124,-29 141,-39 150,-54 293,-304 172,-197 157,-252 155,-256 153,-260 151,-264"/>
<polygon style="fill:black;stroke:black;" points="147.797,-262.559 146,-273 153.916,-265.958 147.797,-262.559"/>
<text text-anchor="middle" x="226" y="-148" style="font-family:Times New Roman;font-size:14.00;">ret_pt</text>
</g>
<!--   -->
<g id="node12" class="node"><title> </title>
<text text-anchor="middle" x="135" y="-357" style="font-family:Times New Roman;font-size:14.00;"> </text>
</g>
<!--  &#45;&gt;_0 -->
<g id="edge14" class="edge"><title> &#45;&gt;_0</title>
<path style="fill:none;stroke:blue;" d="M135,-344C135,-335 135,-326 135,-316"/>
<polygon style="fill:blue;stroke:blue;" points="138.5,-316 135,-306 131.5,-316 138.5,-316"/>
</g>
</g>
</svg>
