<?xml version="1.0" encoding="UTF-8" standalone="no"?>
<!DOCTYPE svg PUBLIC "-//W3C//DTD SVG 1.0//EN"
 "http://www.w3.org/TR/2001/REC-SVG-20010904/DTD/svg10.dtd" [
 <!ATTLIST svg xmlns:xlink CDATA #FIXED "http://www.w3.org/1999/xlink">
]>
<!-- Generated by Graphviz version 2.14.1 (Fri Nov  9 08:19:38 GMT 2007)
     For user: (mdstairs) Micah Stairs -->
<!-- Title: Image Pages: 1 -->
<svg width="199pt" height="298pt"
 viewBox="0.00 0.00 199.00 298.00" xmlns="http://www.w3.org/2000/svg" xmlns:xlink="http://www.w3.org/1999/xlink">
<g id="graph0" class="graph" transform="scale(1 1) rotate(0) translate(4 294)">
<title>Image</title>
<polygon style="fill:white;stroke:white;" points="-4,4 -4,-294 195,-294 195,4 -4,4"/>
<!-- _0 -->
<g id="node1" class="node"><title>_0</title>
<ellipse style="fill:none;stroke:black;stroke-width:2;" cx="66" cy="-198" rx="18" ry="18"/>
<text text-anchor="middle" x="66" y="-193" style="font-family:Times New Roman;font-size:14.00;">0</text>
</g>
<!-- _1 -->
<g id="node3" class="node"><title>_1</title>
<ellipse style="fill:none;stroke:black;stroke-width:2;" cx="18" cy="-108" rx="18" ry="18"/>
<text text-anchor="middle" x="18" y="-103" style="font-family:Times New Roman;font-size:14.00;">1</text>
</g>
<!-- _0&#45;&gt;_1 -->
<g id="edge2" class="edge"><title>_0&#45;&gt;_1</title>
<path style="fill:none;stroke:black;" d="M50,-189C40,-183 27,-174 21,-162 17,-154 16,-145 15,-136"/>
<polygon style="fill:black;stroke:black;" points="18.5001,-136 15,-126 11.5001,-136 18.5001,-136"/>
<text text-anchor="middle" x="62" y="-148" style="font-family:Times New Roman;font-size:14.00;">start_case</text>
</g>
<!-- _2 -->
<g id="node5" class="node"><title>_2</title>
<ellipse style="fill:none;stroke:black;stroke-width:2;" cx="64" cy="-18" rx="18" ry="18"/>
<text text-anchor="middle" x="64" y="-13" style="font-family:Times New Roman;font-size:14.00;">2</text>
</g>
<!-- _1&#45;&gt;_2 -->
<g id="edge4" class="edge"><title>_1&#45;&gt;_2</title>
<path style="fill:none;stroke:black;" d="M14,-90C13,-79 13,-65 18,-54 22,-44 31,-37 39,-31"/>
<polygon style="fill:black;stroke:black;" points="40.375,-34.268 47,-26 36.665,-28.332 40.375,-34.268"/>
<text text-anchor="middle" x="58" y="-58" style="font-family:Times New Roman;font-size:14.00;">attch_case</text>
</g>
<!-- _2&#45;&gt;_0 -->
<g id="edge6" class="edge"><title>_2&#45;&gt;_0</title>
<path style="fill:none;stroke:black;" d="M79,-29C86,-35 93,-44 97,-54 114,-98 113,-117 97,-162 94,-168 91,-173 87,-178"/>
<polygon style="fill:black;stroke:black;" points="83.9511,-176.169 80,-186 89.2191,-180.779 83.9511,-176.169"/>
<text text-anchor="middle" x="150" y="-103" style="font-family:Times New Roman;font-size:14.00;">compl_case</text>
</g>
<!--   -->
<g id="node7" class="node"><title> </title>
<text text-anchor="middle" x="66" y="-267" style="font-family:Times New Roman;font-size:14.00;"> </text>
</g>
<!--  &#45;&gt;_0 -->
<g id="edge8" class="edge"><title> &#45;&gt;_0</title>
<path style="fill:none;stroke:blue;" d="M66,-254C66,-245 66,-236 66,-226"/>
<polygon style="fill:blue;stroke:blue;" points="69.5001,-226 66,-216 62.5001,-226 69.5001,-226"/>
</g>
</g>
</svg>
