<?xml version="1.0" encoding="UTF-8" standalone="no"?>
<!DOCTYPE svg PUBLIC "-//W3C//DTD SVG 1.0//EN"
 "http://www.w3.org/TR/2001/REC-SVG-20010904/DTD/svg10.dtd" [
 <!ATTLIST svg xmlns:xlink CDATA #FIXED "http://www.w3.org/1999/xlink">
]>
<!-- Generated by Graphviz version 2.14.1 (Fri Nov  9 08:19:38 GMT 2007)
     For user: (mdstairs) Micah Stairs -->
<!-- Title: Image Pages: 1 -->
<svg width="384pt" height="118pt"
 viewBox="0.00 0.00 384.00 118.00" xmlns="http://www.w3.org/2000/svg" xmlns:xlink="http://www.w3.org/1999/xlink">
<g id="graph0" class="graph" transform="scale(1 1) rotate(0) translate(4 114)">
<title>Image</title>
<polygon style="fill:white;stroke:white;" points="-4,4 -4,-114 380,-114 380,4 -4,4"/>
<!-- _0 -->
<g id="node1" class="node"><title>_0</title>
<ellipse style="fill:none;stroke:black;stroke-width:2;" cx="27" cy="-18" rx="18" ry="18"/>
<text text-anchor="middle" x="27" y="-13" style="font-family:Times New Roman;font-size:14.00;">0</text>
</g>
<!-- _0&#45;&gt;_0 -->
<g id="edge2" class="edge"><title>_0&#45;&gt;_0</title>
<path style="fill:none;stroke:black;" d="M44,-24C54,-26 63,-24 63,-18 63,-14 59,-12 54,-11"/>
<polygon style="fill:black;stroke:black;" points="53.6021,-7.52224 44,-12 54.2987,-14.4875 53.6021,-7.52224"/>
<text text-anchor="middle" x="219" y="-13" style="font-family:Times New Roman;font-size:14.00;">attch_ptA,attch_ptB,finA_attch,finB_attch</text>
</g>
<!--   -->
<g id="node3" class="node"><title> </title>
<text text-anchor="middle" x="27" y="-87" style="font-family:Times New Roman;font-size:14.00;"> </text>
</g>
<!--  &#45;&gt;_0 -->
<g id="edge4" class="edge"><title> &#45;&gt;_0</title>
<path style="fill:none;stroke:blue;" d="M27,-74C27,-65 27,-56 27,-46"/>
<polygon style="fill:blue;stroke:blue;" points="30.5001,-46 27,-36 23.5001,-46 30.5001,-46"/>
</g>
</g>
</svg>
