<?xml version="1.0" encoding="UTF-8" standalone="no"?>
<!DOCTYPE svg PUBLIC "-//W3C//DTD SVG 1.0//EN"
 "http://www.w3.org/TR/2001/REC-SVG-20010904/DTD/svg10.dtd" [
 <!ATTLIST svg xmlns:xlink CDATA #FIXED "http://www.w3.org/1999/xlink">
]>
<!-- Generated by Graphviz version 2.14.1 (Fri Nov  9 08:19:38 GMT 2007)
     For user: (mdstairs) Micah Stairs -->
<!-- Title: Image Pages: 1 -->
<svg width="161pt" height="568pt"
 viewBox="0.00 0.00 161.00 568.00" xmlns="http://www.w3.org/2000/svg" xmlns:xlink="http://www.w3.org/1999/xlink">
<g id="graph0" class="graph" transform="scale(1 1) rotate(0) translate(4 564)">
<title>Image</title>
<polygon style="fill:white;stroke:white;" points="-4,4 -4,-564 157,-564 157,4 -4,4"/>
<!-- _0 -->
<g id="node1" class="node"><title>_0</title>
<ellipse style="fill:none;stroke:black;stroke-width:2;" cx="58" cy="-468" rx="18" ry="18"/>
<text text-anchor="middle" x="58" y="-463" style="font-family:Times New Roman;font-size:14.00;">0</text>
</g>
<!-- _1 -->
<g id="node3" class="node"><title>_1</title>
<ellipse style="fill:none;stroke:black;stroke-width:2;" cx="18" cy="-378" rx="18" ry="18"/>
<text text-anchor="middle" x="18" y="-373" style="font-family:Times New Roman;font-size:14.00;">1</text>
</g>
<!-- _0&#45;&gt;_1 -->
<g id="edge2" class="edge"><title>_0&#45;&gt;_1</title>
<path style="fill:none;stroke:black;" d="M43,-458C34,-452 23,-443 18,-432 14,-424 14,-415 14,-406"/>
<polygon style="fill:black;stroke:black;" points="17.4875,-406.299 15,-396 10.5222,-405.602 17.4875,-406.299"/>
<text text-anchor="middle" x="55" y="-418" style="font-family:Times New Roman;font-size:14.00;">start_pol</text>
</g>
<!-- _2 -->
<g id="node5" class="node"><title>_2</title>
<ellipse style="fill:none;stroke:black;stroke-width:2;" cx="22" cy="-288" rx="18" ry="18"/>
<text text-anchor="middle" x="22" y="-283" style="font-family:Times New Roman;font-size:14.00;">2</text>
</g>
<!-- _1&#45;&gt;_2 -->
<g id="edge4" class="edge"><title>_1&#45;&gt;_2</title>
<path style="fill:none;stroke:black;" d="M19,-360C20,-347 21,-331 21,-316"/>
<polygon style="fill:black;stroke:black;" points="24.5001,-316 21,-306 17.5001,-316 24.5001,-316"/>
<text text-anchor="middle" x="53" y="-328" style="font-family:Times New Roman;font-size:14.00;">dip_acid</text>
</g>
<!-- _3 -->
<g id="node7" class="node"><title>_3</title>
<ellipse style="fill:none;stroke:black;stroke-width:2;" cx="23" cy="-198" rx="18" ry="18"/>
<text text-anchor="middle" x="23" y="-193" style="font-family:Times New Roman;font-size:14.00;">3</text>
</g>
<!-- _2&#45;&gt;_3 -->
<g id="edge6" class="edge"><title>_2&#45;&gt;_3</title>
<path style="fill:none;stroke:black;" d="M22,-270C22,-257 22,-241 23,-226"/>
<polygon style="fill:black;stroke:black;" points="26.5001,-226 23,-216 19.5001,-226 26.5001,-226"/>
<text text-anchor="middle" x="45" y="-238" style="font-family:Times New Roman;font-size:14.00;">polish</text>
</g>
<!-- _4 -->
<g id="node9" class="node"><title>_4</title>
<ellipse style="fill:none;stroke:black;stroke-width:2;" cx="28" cy="-108" rx="18" ry="18"/>
<text text-anchor="middle" x="28" y="-103" style="font-family:Times New Roman;font-size:14.00;">4</text>
</g>
<!-- _3&#45;&gt;_4 -->
<g id="edge8" class="edge"><title>_3&#45;&gt;_4</title>
<path style="fill:none;stroke:black;" d="M23,-180C23,-169 23,-156 24,-144 24,-141 25,-139 25,-136"/>
<polygon style="fill:black;stroke:black;" points="28.4875,-136.299 26,-126 21.5222,-135.602 28.4875,-136.299"/>
<text text-anchor="middle" x="55" y="-148" style="font-family:Times New Roman;font-size:14.00;">dip_acid</text>
</g>
<!-- _5 -->
<g id="node11" class="node"><title>_5</title>
<ellipse style="fill:none;stroke:black;stroke-width:2;" cx="67" cy="-18" rx="18" ry="18"/>
<text text-anchor="middle" x="67" y="-13" style="font-family:Times New Roman;font-size:14.00;">5</text>
</g>
<!-- _4&#45;&gt;_5 -->
<g id="edge10" class="edge"><title>_4&#45;&gt;_5</title>
<path style="fill:none;stroke:black;" d="M31,-90C33,-79 36,-65 41,-54 43,-49 46,-45 49,-40"/>
<polygon style="fill:black;stroke:black;" points="51.8,-42.1 55,-32 46.2,-37.9 51.8,-42.1"/>
<text text-anchor="middle" x="63" y="-58" style="font-family:Times New Roman;font-size:14.00;">polish</text>
</g>
<!-- _5&#45;&gt;_0 -->
<g id="edge12" class="edge"><title>_5&#45;&gt;_0</title>
<path style="fill:none;stroke:black;" d="M76,-34C86,-51 99,-80 99,-108 99,-378 99,-378 99,-378 99,-402 95,-409 85,-432 83,-437 80,-442 76,-446"/>
<polygon style="fill:black;stroke:black;" points="73.2,-443.9 70,-454 78.8,-448.1 73.2,-443.9"/>
<text text-anchor="middle" x="126" y="-238" style="font-family:Times New Roman;font-size:14.00;">str_rlse</text>
</g>
<!--   -->
<g id="node13" class="node"><title> </title>
<text text-anchor="middle" x="58" y="-537" style="font-family:Times New Roman;font-size:14.00;"> </text>
</g>
<!--  &#45;&gt;_0 -->
<g id="edge14" class="edge"><title> &#45;&gt;_0</title>
<path style="fill:none;stroke:blue;" d="M58,-524C58,-515 58,-506 58,-496"/>
<polygon style="fill:blue;stroke:blue;" points="61.5001,-496 58,-486 54.5001,-496 61.5001,-496"/>
</g>
</g>
</svg>
